<?xml version="1.0" encoding="utf-8" standalone="no"?>
<!DOCTYPE svg PUBLIC "-//W3C//DTD SVG 1.1//EN"
  "http://www.w3.org/Graphics/SVG/1.1/DTD/svg11.dtd">
<svg xmlns:xlink="http://www.w3.org/1999/xlink" width="368.284375pt" height="210.277656pt" viewBox="0 0 368.284375 210.277656" xmlns="http://www.w3.org/2000/svg" version="1.1">
 <metadata>
  <rdf:RDF xmlns:dc="http://purl.org/dc/elements/1.1/" xmlns:cc="http://creativecommons.org/ns#" xmlns:rdf="http://www.w3.org/1999/02/22-rdf-syntax-ns#">
   <cc:Work>
    <dc:type rdf:resource="http://purl.org/dc/dcmitype/StillImage"/>
    <dc:date>2025-07-07T15:43:27.407534</dc:date>
    <dc:format>image/svg+xml</dc:format>
    <dc:creator>
     <cc:Agent>
      <dc:title>Matplotlib v3.10.1, https://matplotlib.org/</dc:title>
     </cc:Agent>
    </dc:creator>
   </cc:Work>
  </rdf:RDF>
 </metadata>
 <defs>
  <style type="text/css">*{stroke-linejoin: round; stroke-linecap: butt}</style>
 </defs>
 <g id="figure_1">
  <g id="patch_1">
   <path d="M 0 210.277656 
L 368.284375 210.277656 
L 368.284375 0 
L 0 0 
z
" style="fill: #ffffff"/>
  </g>
  <g id="axes_1">
   <g id="patch_2">
    <path d="M 54.184375 164.978906 
L 361.084375 164.978906 
L 361.084375 12.518906 
L 54.184375 12.518906 
z
" style="fill: #ffffff"/>
   </g>
   <g id="matplotlib.axis_1">
    <g id="xtick_1">
     <g id="line2d_1">
      <defs>
       <path id="m8772396206" d="M 0 0 
L 0 3.5 
" style="stroke: #000000; stroke-width: 0.8"/>
      </defs>
      <g>
       <use xlink:href="#m8772396206" x="68.134375" y="164.978906" style="stroke: #000000; stroke-width: 0.8"/>
      </g>
     </g>
     <g id="text_1">
      <!-- 0 -->
      <g transform="translate(63.680625 182.616719) scale(0.14 -0.14)">
       <defs>
        <path id="DejaVuSans-30" d="M 2034 4250 
Q 1547 4250 1301 3770 
Q 1056 3291 1056 2328 
Q 1056 1369 1301 889 
Q 1547 409 2034 409 
Q 2525 409 2770 889 
Q 3016 1369 3016 2328 
Q 3016 3291 2770 3770 
Q 2525 4250 2034 4250 
z
M 2034 4750 
Q 2819 4750 3233 4129 
Q 3647 3509 3647 2328 
Q 3647 1150 3233 529 
Q 2819 -91 2034 -91 
Q 1250 -91 836 529 
Q 422 1150 422 2328 
Q 422 3509 836 4129 
Q 1250 4750 2034 4750 
z
" transform="scale(0.015625)"/>
       </defs>
       <use xlink:href="#DejaVuSans-30"/>
      </g>
     </g>
    </g>
    <g id="xtick_2">
     <g id="line2d_2">
      <g>
       <use xlink:href="#m8772396206" x="158.849266" y="164.978906" style="stroke: #000000; stroke-width: 0.8"/>
      </g>
     </g>
     <g id="text_2">
      <!-- 50 -->
      <g transform="translate(149.941766 182.616719) scale(0.14 -0.14)">
       <defs>
        <path id="DejaVuSans-35" d="M 691 4666 
L 3169 4666 
L 3169 4134 
L 1269 4134 
L 1269 2991 
Q 1406 3038 1543 3061 
Q 1681 3084 1819 3084 
Q 2600 3084 3056 2656 
Q 3513 2228 3513 1497 
Q 3513 744 3044 326 
Q 2575 -91 1722 -91 
Q 1428 -91 1123 -41 
Q 819 9 494 109 
L 494 744 
Q 775 591 1075 516 
Q 1375 441 1709 441 
Q 2250 441 2565 725 
Q 2881 1009 2881 1497 
Q 2881 1984 2565 2268 
Q 2250 2553 1709 2553 
Q 1456 2553 1204 2497 
Q 953 2441 691 2322 
L 691 4666 
z
" transform="scale(0.015625)"/>
       </defs>
       <use xlink:href="#DejaVuSans-35"/>
       <use xlink:href="#DejaVuSans-30" transform="translate(63.623047 0)"/>
      </g>
     </g>
    </g>
    <g id="xtick_3">
     <g id="line2d_3">
      <g>
       <use xlink:href="#m8772396206" x="249.564157" y="164.978906" style="stroke: #000000; stroke-width: 0.8"/>
      </g>
     </g>
     <g id="text_3">
      <!-- 100 -->
      <g transform="translate(236.202907 182.616719) scale(0.14 -0.14)">
       <defs>
        <path id="DejaVuSans-31" d="M 794 531 
L 1825 531 
L 1825 4091 
L 703 3866 
L 703 4441 
L 1819 4666 
L 2450 4666 
L 2450 531 
L 3481 531 
L 3481 0 
L 794 0 
L 794 531 
z
" transform="scale(0.015625)"/>
       </defs>
       <use xlink:href="#DejaVuSans-31"/>
       <use xlink:href="#DejaVuSans-30" transform="translate(63.623047 0)"/>
       <use xlink:href="#DejaVuSans-30" transform="translate(127.246094 0)"/>
      </g>
     </g>
    </g>
    <g id="xtick_4">
     <g id="line2d_4">
      <g>
       <use xlink:href="#m8772396206" x="340.279049" y="164.978906" style="stroke: #000000; stroke-width: 0.8"/>
      </g>
     </g>
     <g id="text_4">
      <!-- 150 -->
      <g transform="translate(326.917799 182.616719) scale(0.14 -0.14)">
       <use xlink:href="#DejaVuSans-31"/>
       <use xlink:href="#DejaVuSans-35" transform="translate(63.623047 0)"/>
       <use xlink:href="#DejaVuSans-30" transform="translate(127.246094 0)"/>
      </g>
     </g>
    </g>
    <g id="text_5">
     <!-- $t$ -->
     <g transform="translate(205.044375 200.166094) scale(0.14 -0.14)">
      <defs>
       <path id="Cmmi10-74" d="M 397 519 
Q 397 613 416 697 
L 878 2534 
L 206 2534 
Q 141 2534 141 2619 
Q 166 2759 225 2759 
L 934 2759 
L 1191 3803 
Q 1216 3888 1291 3947 
Q 1366 4006 1459 4006 
Q 1541 4006 1595 3957 
Q 1650 3909 1650 3828 
Q 1650 3809 1648 3798 
Q 1647 3788 1644 3775 
L 1388 2759 
L 2047 2759 
Q 2113 2759 2113 2675 
Q 2109 2659 2100 2621 
Q 2091 2584 2075 2559 
Q 2059 2534 2028 2534 
L 1331 2534 
L 872 684 
Q 825 503 825 372 
Q 825 97 1013 97 
Q 1294 97 1511 361 
Q 1728 625 1844 941 
Q 1869 978 1894 978 
L 1972 978 
Q 1997 978 2012 961 
Q 2028 944 2028 922 
Q 2028 909 2022 903 
Q 1881 516 1612 222 
Q 1344 -72 997 -72 
Q 744 -72 570 93 
Q 397 259 397 519 
z
" transform="scale(0.015625)"/>
      </defs>
      <use xlink:href="#Cmmi10-74" transform="translate(0 0.40625)"/>
     </g>
    </g>
   </g>
   <g id="matplotlib.axis_2">
    <g id="ytick_1">
     <g id="line2d_5">
      <defs>
       <path id="m37e0fad82a" d="M 0 0 
L -3.5 0 
" style="stroke: #000000; stroke-width: 0.8"/>
      </defs>
      <g>
       <use xlink:href="#m37e0fad82a" x="54.184375" y="164.978906" style="stroke: #000000; stroke-width: 0.8"/>
      </g>
     </g>
     <g id="text_6">
      <!-- 0.0 -->
      <g transform="translate(24.92 170.297813) scale(0.14 -0.14)">
       <defs>
        <path id="DejaVuSans-2e" d="M 684 794 
L 1344 794 
L 1344 0 
L 684 0 
L 684 794 
z
" transform="scale(0.015625)"/>
       </defs>
       <use xlink:href="#DejaVuSans-30"/>
       <use xlink:href="#DejaVuSans-2e" transform="translate(63.623047 0)"/>
       <use xlink:href="#DejaVuSans-30" transform="translate(95.410156 0)"/>
      </g>
     </g>
    </g>
    <g id="ytick_2">
     <g id="line2d_6">
      <g>
       <use xlink:href="#m37e0fad82a" x="54.184375" y="88.748906" style="stroke: #000000; stroke-width: 0.8"/>
      </g>
     </g>
     <g id="text_7">
      <!-- 0.5 -->
      <g transform="translate(24.92 94.067812) scale(0.14 -0.14)">
       <use xlink:href="#DejaVuSans-30"/>
       <use xlink:href="#DejaVuSans-2e" transform="translate(63.623047 0)"/>
       <use xlink:href="#DejaVuSans-35" transform="translate(95.410156 0)"/>
      </g>
     </g>
    </g>
    <g id="ytick_3">
     <g id="line2d_7">
      <g>
       <use xlink:href="#m37e0fad82a" x="54.184375" y="12.518906" style="stroke: #000000; stroke-width: 0.8"/>
      </g>
     </g>
     <g id="text_8">
      <!-- 1.0 -->
      <g transform="translate(24.92 17.837812) scale(0.14 -0.14)">
       <use xlink:href="#DejaVuSans-31"/>
       <use xlink:href="#DejaVuSans-2e" transform="translate(63.623047 0)"/>
       <use xlink:href="#DejaVuSans-30" transform="translate(95.410156 0)"/>
      </g>
     </g>
    </g>
    <g id="text_9">
     <!-- Fraction of nodes, $\rho$ -->
     <g transform="translate(17.84 157.628906) rotate(-90) scale(0.14 -0.14)">
      <defs>
       <path id="DejaVuSans-46" d="M 628 4666 
L 3309 4666 
L 3309 4134 
L 1259 4134 
L 1259 2759 
L 3109 2759 
L 3109 2228 
L 1259 2228 
L 1259 0 
L 628 0 
L 628 4666 
z
" transform="scale(0.015625)"/>
       <path id="DejaVuSans-72" d="M 2631 2963 
Q 2534 3019 2420 3045 
Q 2306 3072 2169 3072 
Q 1681 3072 1420 2755 
Q 1159 2438 1159 1844 
L 1159 0 
L 581 0 
L 581 3500 
L 1159 3500 
L 1159 2956 
Q 1341 3275 1631 3429 
Q 1922 3584 2338 3584 
Q 2397 3584 2469 3576 
Q 2541 3569 2628 3553 
L 2631 2963 
z
" transform="scale(0.015625)"/>
       <path id="DejaVuSans-61" d="M 2194 1759 
Q 1497 1759 1228 1600 
Q 959 1441 959 1056 
Q 959 750 1161 570 
Q 1363 391 1709 391 
Q 2188 391 2477 730 
Q 2766 1069 2766 1631 
L 2766 1759 
L 2194 1759 
z
M 3341 1997 
L 3341 0 
L 2766 0 
L 2766 531 
Q 2569 213 2275 61 
Q 1981 -91 1556 -91 
Q 1019 -91 701 211 
Q 384 513 384 1019 
Q 384 1609 779 1909 
Q 1175 2209 1959 2209 
L 2766 2209 
L 2766 2266 
Q 2766 2663 2505 2880 
Q 2244 3097 1772 3097 
Q 1472 3097 1187 3025 
Q 903 2953 641 2809 
L 641 3341 
Q 956 3463 1253 3523 
Q 1550 3584 1831 3584 
Q 2591 3584 2966 3190 
Q 3341 2797 3341 1997 
z
" transform="scale(0.015625)"/>
       <path id="DejaVuSans-63" d="M 3122 3366 
L 3122 2828 
Q 2878 2963 2633 3030 
Q 2388 3097 2138 3097 
Q 1578 3097 1268 2742 
Q 959 2388 959 1747 
Q 959 1106 1268 751 
Q 1578 397 2138 397 
Q 2388 397 2633 464 
Q 2878 531 3122 666 
L 3122 134 
Q 2881 22 2623 -34 
Q 2366 -91 2075 -91 
Q 1284 -91 818 406 
Q 353 903 353 1747 
Q 353 2603 823 3093 
Q 1294 3584 2113 3584 
Q 2378 3584 2631 3529 
Q 2884 3475 3122 3366 
z
" transform="scale(0.015625)"/>
       <path id="DejaVuSans-74" d="M 1172 4494 
L 1172 3500 
L 2356 3500 
L 2356 3053 
L 1172 3053 
L 1172 1153 
Q 1172 725 1289 603 
Q 1406 481 1766 481 
L 2356 481 
L 2356 0 
L 1766 0 
Q 1100 0 847 248 
Q 594 497 594 1153 
L 594 3053 
L 172 3053 
L 172 3500 
L 594 3500 
L 594 4494 
L 1172 4494 
z
" transform="scale(0.015625)"/>
       <path id="DejaVuSans-69" d="M 603 3500 
L 1178 3500 
L 1178 0 
L 603 0 
L 603 3500 
z
M 603 4863 
L 1178 4863 
L 1178 4134 
L 603 4134 
L 603 4863 
z
" transform="scale(0.015625)"/>
       <path id="DejaVuSans-6f" d="M 1959 3097 
Q 1497 3097 1228 2736 
Q 959 2375 959 1747 
Q 959 1119 1226 758 
Q 1494 397 1959 397 
Q 2419 397 2687 759 
Q 2956 1122 2956 1747 
Q 2956 2369 2687 2733 
Q 2419 3097 1959 3097 
z
M 1959 3584 
Q 2709 3584 3137 3096 
Q 3566 2609 3566 1747 
Q 3566 888 3137 398 
Q 2709 -91 1959 -91 
Q 1206 -91 779 398 
Q 353 888 353 1747 
Q 353 2609 779 3096 
Q 1206 3584 1959 3584 
z
" transform="scale(0.015625)"/>
       <path id="DejaVuSans-6e" d="M 3513 2113 
L 3513 0 
L 2938 0 
L 2938 2094 
Q 2938 2591 2744 2837 
Q 2550 3084 2163 3084 
Q 1697 3084 1428 2787 
Q 1159 2491 1159 1978 
L 1159 0 
L 581 0 
L 581 3500 
L 1159 3500 
L 1159 2956 
Q 1366 3272 1645 3428 
Q 1925 3584 2291 3584 
Q 2894 3584 3203 3211 
Q 3513 2838 3513 2113 
z
" transform="scale(0.015625)"/>
       <path id="DejaVuSans-20" transform="scale(0.015625)"/>
       <path id="DejaVuSans-66" d="M 2375 4863 
L 2375 4384 
L 1825 4384 
Q 1516 4384 1395 4259 
Q 1275 4134 1275 3809 
L 1275 3500 
L 2222 3500 
L 2222 3053 
L 1275 3053 
L 1275 0 
L 697 0 
L 697 3053 
L 147 3053 
L 147 3500 
L 697 3500 
L 697 3744 
Q 697 4328 969 4595 
Q 1241 4863 1831 4863 
L 2375 4863 
z
" transform="scale(0.015625)"/>
       <path id="DejaVuSans-64" d="M 2906 2969 
L 2906 4863 
L 3481 4863 
L 3481 0 
L 2906 0 
L 2906 525 
Q 2725 213 2448 61 
Q 2172 -91 1784 -91 
Q 1150 -91 751 415 
Q 353 922 353 1747 
Q 353 2572 751 3078 
Q 1150 3584 1784 3584 
Q 2172 3584 2448 3432 
Q 2725 3281 2906 2969 
z
M 947 1747 
Q 947 1113 1208 752 
Q 1469 391 1925 391 
Q 2381 391 2643 752 
Q 2906 1113 2906 1747 
Q 2906 2381 2643 2742 
Q 2381 3103 1925 3103 
Q 1469 3103 1208 2742 
Q 947 2381 947 1747 
z
" transform="scale(0.015625)"/>
       <path id="DejaVuSans-65" d="M 3597 1894 
L 3597 1613 
L 953 1613 
Q 991 1019 1311 708 
Q 1631 397 2203 397 
Q 2534 397 2845 478 
Q 3156 559 3463 722 
L 3463 178 
Q 3153 47 2828 -22 
Q 2503 -91 2169 -91 
Q 1331 -91 842 396 
Q 353 884 353 1716 
Q 353 2575 817 3079 
Q 1281 3584 2069 3584 
Q 2775 3584 3186 3129 
Q 3597 2675 3597 1894 
z
M 3022 2063 
Q 3016 2534 2758 2815 
Q 2500 3097 2075 3097 
Q 1594 3097 1305 2825 
Q 1016 2553 972 2059 
L 3022 2063 
z
" transform="scale(0.015625)"/>
       <path id="DejaVuSans-73" d="M 2834 3397 
L 2834 2853 
Q 2591 2978 2328 3040 
Q 2066 3103 1784 3103 
Q 1356 3103 1142 2972 
Q 928 2841 928 2578 
Q 928 2378 1081 2264 
Q 1234 2150 1697 2047 
L 1894 2003 
Q 2506 1872 2764 1633 
Q 3022 1394 3022 966 
Q 3022 478 2636 193 
Q 2250 -91 1575 -91 
Q 1294 -91 989 -36 
Q 684 19 347 128 
L 347 722 
Q 666 556 975 473 
Q 1284 391 1588 391 
Q 1994 391 2212 530 
Q 2431 669 2431 922 
Q 2431 1156 2273 1281 
Q 2116 1406 1581 1522 
L 1381 1569 
Q 847 1681 609 1914 
Q 372 2147 372 2553 
Q 372 3047 722 3315 
Q 1072 3584 1716 3584 
Q 2034 3584 2315 3537 
Q 2597 3491 2834 3397 
z
" transform="scale(0.015625)"/>
       <path id="DejaVuSans-2c" d="M 750 794 
L 1409 794 
L 1409 256 
L 897 -744 
L 494 -744 
L 750 256 
L 750 794 
z
" transform="scale(0.015625)"/>
       <path id="Cmmi10-bd" d="M 178 -1203 
Q 178 -1166 184 -1153 
L 819 1403 
Q 909 1747 1129 2076 
Q 1350 2406 1662 2617 
Q 1975 2828 2322 2828 
Q 2600 2828 2808 2683 
Q 3016 2538 3120 2302 
Q 3225 2066 3225 1784 
Q 3225 1475 3098 1144 
Q 2972 813 2748 538 
Q 2525 263 2234 95 
Q 1944 -72 1625 -72 
Q 1438 -72 1272 39 
Q 1106 150 1013 331 
L 634 -1178 
Q 616 -1269 541 -1325 
Q 466 -1381 372 -1381 
Q 294 -1381 236 -1332 
Q 178 -1284 178 -1203 
z
M 1638 97 
Q 1978 97 2229 445 
Q 2481 794 2614 1264 
Q 2747 1734 2747 2059 
Q 2747 2303 2640 2483 
Q 2534 2663 2309 2663 
Q 2031 2663 1818 2452 
Q 1606 2241 1478 1956 
Q 1350 1672 1269 1363 
L 1094 647 
Q 1134 416 1276 256 
Q 1419 97 1638 97 
z
" transform="scale(0.015625)"/>
      </defs>
      <use xlink:href="#DejaVuSans-46" transform="translate(0 0.015625)"/>
      <use xlink:href="#DejaVuSans-72" transform="translate(57.519531 0.015625)"/>
      <use xlink:href="#DejaVuSans-61" transform="translate(98.632812 0.015625)"/>
      <use xlink:href="#DejaVuSans-63" transform="translate(159.912109 0.015625)"/>
      <use xlink:href="#DejaVuSans-74" transform="translate(214.892578 0.015625)"/>
      <use xlink:href="#DejaVuSans-69" transform="translate(254.101562 0.015625)"/>
      <use xlink:href="#DejaVuSans-6f" transform="translate(281.884766 0.015625)"/>
      <use xlink:href="#DejaVuSans-6e" transform="translate(343.066406 0.015625)"/>
      <use xlink:href="#DejaVuSans-20" transform="translate(406.445312 0.015625)"/>
      <use xlink:href="#DejaVuSans-6f" transform="translate(438.232422 0.015625)"/>
      <use xlink:href="#DejaVuSans-66" transform="translate(499.414062 0.015625)"/>
      <use xlink:href="#DejaVuSans-20" transform="translate(534.619141 0.015625)"/>
      <use xlink:href="#DejaVuSans-6e" transform="translate(566.40625 0.015625)"/>
      <use xlink:href="#DejaVuSans-6f" transform="translate(629.785156 0.015625)"/>
      <use xlink:href="#DejaVuSans-64" transform="translate(690.966797 0.015625)"/>
      <use xlink:href="#DejaVuSans-65" transform="translate(754.443359 0.015625)"/>
      <use xlink:href="#DejaVuSans-73" transform="translate(815.966797 0.015625)"/>
      <use xlink:href="#DejaVuSans-2c" transform="translate(868.066406 0.015625)"/>
      <use xlink:href="#DejaVuSans-20" transform="translate(899.853516 0.015625)"/>
      <use xlink:href="#Cmmi10-bd" transform="translate(931.640625 0.015625)"/>
     </g>
    </g>
   </g>
   <g id="line2d_8">
    <path d="M 68.134375 20.231891 
L 68.7702 20.488991 
L 68.788054 20.74609 
L 69.691377 21.517389 
L 69.950883 22.288687 
L 69.982109 22.288687 
L 70.080381 22.545787 
L 70.337049 22.802886 
L 70.382761 23.059986 
L 70.627186 23.059986 
L 70.754781 23.317085 
L 70.800829 23.831284 
L 71.146688 24.088383 
L 71.176691 24.602582 
L 71.351294 24.859682 
L 71.383652 25.116781 
L 71.544994 25.373881 
L 71.679932 26.145179 
L 71.789627 26.402279 
L 72.179149 26.659378 
L 72.443844 27.687776 
L 72.86389 27.687776 
L 73.036289 28.201975 
L 73.161366 28.459075 
L 73.510115 28.716174 
L 73.51875 29.230373 
L 73.916545 29.487473 
L 73.930447 30.001672 
L 74.128623 30.258771 
L 74.915893 30.77297 
L 74.97829 31.287169 
L 75.450187 32.315567 
L 75.529487 32.315567 
L 75.579574 32.572667 
L 75.775068 32.829766 
L 75.826181 33.086866 
L 76.040419 33.086866 
L 76.236995 33.601065 
L 76.256182 34.115264 
L 76.513026 34.372363 
L 76.662346 35.400761 
L 76.774818 35.400761 
L 76.810446 35.91496 
L 76.939446 35.91496 
L 77.010023 36.429159 
L 77.134066 36.429159 
L 77.452218 37.971756 
L 77.645925 38.228856 
L 77.740143 38.485955 
L 77.77151 38.485955 
L 77.938167 39.257254 
L 78.01212 39.771453 
L 78.216847 39.771453 
L 78.295868 40.285652 
L 78.548958 40.799851 
L 78.77222 41.31405 
L 79.07943 42.342448 
L 79.653019 45.94184 
L 79.880729 45.94184 
L 79.905845 46.19894 
L 80.255574 46.456039 
L 80.327704 46.970238 
L 80.545287 47.227338 
L 80.589259 47.998636 
L 80.752141 48.255736 
L 80.860047 49.027034 
L 81.135015 49.798333 
L 81.29454 50.055432 
L 81.628835 50.055432 
L 81.673357 50.312532 
L 81.98014 50.826731 
L 82.039369 51.34093 
L 82.489814 52.112228 
L 82.732994 53.140626 
L 82.99812 53.911925 
L 83.141144 53.911925 
L 83.538758 54.426124 
L 83.623617 54.940323 
L 84.107314 55.197422 
L 84.179763 55.454522 
L 84.338753 55.454522 
L 84.374744 55.968721 
L 84.982053 57.254218 
L 85.091867 57.254218 
L 85.333995 57.511318 
L 85.511154 57.768417 
L 85.530615 58.025517 
L 85.741431 58.282616 
L 85.960627 58.282616 
L 86.211725 59.053915 
L 86.347642 59.053915 
L 86.558312 59.568114 
L 86.67985 60.082313 
L 86.990407 61.36781 
L 87.179276 62.139109 
L 87.511516 63.167507 
L 87.931668 63.167507 
L 88.033545 63.681706 
L 88.141349 64.195905 
L 88.153251 64.453004 
L 88.438633 64.710104 
L 89.075601 66.5098 
L 89.136724 66.5098 
L 89.168662 66.7669 
L 89.492592 67.023999 
L 89.554074 67.281098 
L 90.033199 67.795297 
L 90.063351 68.052397 
L 90.794606 69.080795 
L 91.006566 69.337894 
L 91.155541 70.109193 
L 91.602796 71.39469 
L 91.657634 71.65179 
L 91.890064 71.908889 
L 92.09234 72.937287 
L 92.437377 73.451486 
L 92.438631 73.708586 
L 92.744779 74.222785 
L 92.803119 74.479884 
L 93.087526 74.736984 
L 93.179357 74.736984 
L 93.230574 75.251183 
L 93.420269 75.251183 
L 93.762719 75.765382 
L 94.06423 75.765382 
L 94.467826 77.565078 
L 94.656861 78.079277 
L 94.860471 78.850576 
L 95.00598 78.850576 
L 95.118878 79.364775 
L 96.24393 79.878974 
L 96.367572 80.907372 
L 97.451803 81.93577 
L 97.565857 82.449969 
L 97.659939 82.449969 
L 97.832705 82.964168 
L 97.91984 83.478367 
L 98.642405 84.763864 
L 98.95355 86.563561 
L 99.696976 86.563561 
L 99.917204 87.07776 
L 100.086077 87.07776 
L 100.425273 87.591959 
L 100.607211 87.591959 
L 100.778141 87.849058 
L 101.026229 88.106158 
L 102.313737 88.106158 
L 102.407151 88.363257 
L 102.641344 88.363257 
L 102.729445 89.134555 
L 102.84765 89.391655 
L 103.147476 89.648754 
L 103.557889 90.420053 
L 104.076223 91.191351 
L 104.109307 91.191351 
L 104.257891 91.448451 
L 104.448887 91.448451 
L 104.64662 91.96265 
L 104.733146 92.219749 
L 105.285595 92.219749 
L 105.362362 92.476849 
L 105.514929 92.476849 
L 105.634307 92.991048 
L 106.577365 92.991048 
L 106.764318 93.248147 
L 106.863788 93.248147 
L 107.264101 94.019446 
L 107.487796 94.019446 
L 107.727701 94.276545 
L 108.191579 94.276545 
L 108.846445 95.047844 
L 108.977598 95.562043 
L 109.121769 95.562043 
L 109.152809 95.819142 
L 110.179066 95.819142 
L 110.4667 96.333341 
L 110.939599 96.84754 
L 111.011314 96.84754 
L 111.414882 97.875938 
L 111.688294 97.875938 
L 111.799268 98.133038 
L 112.291219 98.390137 
L 112.417159 98.647237 
L 112.635662 98.647237 
L 113.254627 99.418535 
L 113.45602 99.418535 
L 113.478221 99.675635 
L 113.76082 99.675635 
L 113.796267 100.189834 
L 113.909962 100.446933 
L 114.159449 100.446933 
L 114.509184 100.961132 
L 114.754125 101.218232 
L 115.066932 101.218232 
L 115.35613 101.98953 
L 116.621232 101.98953 
L 116.754365 102.503729 
L 116.789716 102.760829 
L 116.963773 102.760829 
L 116.982757 103.017928 
L 119.225067 103.017928 
L 119.919736 103.275028 
L 120.197764 103.275028 
L 120.264946 103.789227 
L 121.716017 103.789227 
L 122.343288 104.817625 
L 123.247234 105.846023 
L 123.670869 105.846023 
L 123.696569 106.103122 
L 124.886946 106.103122 
L 124.997469 106.360222 
L 125.392751 106.360222 
L 125.777907 106.617321 
L 126.235199 106.617321 
L 126.455006 107.13152 
L 128.108097 107.38862 
L 128.448058 108.159918 
L 128.838083 108.417018 
L 129.262584 108.417018 
L 129.337865 108.674117 
L 129.796942 108.674117 
L 129.962493 108.931217 
L 130.582885 108.931217 
L 130.70295 109.188316 
L 131.378552 109.445416 
L 131.493625 109.702515 
L 131.941894 109.959615 
L 132.161857 110.216714 
L 135.133266 110.216714 
L 135.322474 110.473814 
L 135.869387 110.730913 
L 136.234843 110.730913 
L 136.24193 110.988012 
L 136.660123 110.988012 
L 136.940121 111.245112 
L 138.523786 111.759311 
L 138.592336 112.01641 
L 139.236315 112.01641 
L 139.603457 112.530609 
L 139.844861 112.787709 
L 140.134999 112.787709 
L 140.315048 113.301908 
L 142.92582 113.301908 
L 143.112737 113.559007 
L 143.130093 113.816107 
L 143.341163 114.073206 
L 143.836403 114.073206 
L 144.37544 114.330306 
L 144.3867 114.587405 
L 144.528821 114.587405 
L 144.637544 114.844505 
L 145.145307 114.844505 
L 146.330265 115.358704 
L 147.106243 115.358704 
L 147.184845 115.615803 
L 148.875406 115.615803 
L 149.126473 116.130002 
L 150.966007 116.130002 
L 151.654802 116.387102 
L 152.150511 116.387102 
L 152.261588 116.644201 
L 152.912812 116.901301 
L 153.132936 117.4155 
L 154.707175 117.929699 
L 155.156417 117.929699 
L 155.587944 118.443898 
L 158.740367 118.443898 
L 162.15491 119.215196 
L 163.046043 119.215196 
L 163.634559 119.472296 
L 163.758493 119.986495 
L 164.231558 120.243594 
L 164.743913 120.757793 
L 166.221511 120.757793 
L 166.630473 121.014893 
L 168.133922 121.271992 
L 168.893693 121.271992 
L 168.986201 121.529092 
L 169.523073 122.043291 
L 169.537418 122.043291 
L 169.554714 122.30039 
L 170.03151 122.814589 
L 173.013495 122.814589 
L 173.977494 123.071689 
L 175.002035 123.071689 
L 175.695073 123.328788 
L 177.676949 123.328788 
L 182.641959 123.585888 
L 185.099354 123.585888 
L 185.242656 123.842987 
L 187.460657 123.842987 
L 187.949994 124.100087 
L 189.272613 124.100087 
L 189.664069 124.357186 
L 191.433925 124.357186 
L 191.45319 124.614286 
L 191.623423 124.614286 
L 191.764205 124.871385 
L 192.59668 124.871385 
L 192.785178 125.128485 
L 205.035951 125.128485 
L 205.364342 125.385584 
L 212.000874 125.385584 
L 213.637867 125.899783 
L 214.732888 126.156883 
L 217.215729 126.156883 
L 220.382363 126.413982 
L 220.550774 126.671082 
L 220.921544 126.928181 
L 229.875944 126.928181 
L 230.097619 127.185281 
L 231.799867 127.185281 
L 232.127363 127.44238 
L 233.134639 127.69948 
L 234.216982 127.69948 
L 234.239898 127.956579 
L 234.379465 128.213679 
L 236.514337 128.213679 
L 239.172999 128.470778 
L 250.718446 128.470778 
L 251.238827 128.727878 
L 254.915863 128.727878 
L 260.070289 128.984977 
L 260.27904 129.242077 
L 279.056668 129.242077 
L 279.313427 129.499176 
L 347.134375 129.499176 
L 347.134375 129.499176 
" clip-path="url(#p83940619d1)" style="fill: none; stroke: #2e8b57; stroke-width: 1.5; stroke-linecap: square"/>
   </g>
   <g id="line2d_9">
    <path d="M 68.134375 157.265921 
L 68.7702 157.008822 
L 68.788054 156.751722 
L 69.691377 155.980424 
L 69.950883 155.209125 
L 69.982109 155.466225 
L 70.080381 155.209125 
L 70.337049 154.952026 
L 70.352023 154.694926 
L 70.382761 154.952026 
L 70.627186 155.209125 
L 70.754781 154.952026 
L 70.800829 154.694926 
L 71.146688 154.437827 
L 71.176691 153.923628 
L 71.351294 153.666529 
L 71.383652 153.409429 
L 71.544994 153.15233 
L 71.679932 152.381031 
L 71.789627 152.123932 
L 72.179149 151.866832 
L 72.255009 151.352633 
L 72.276365 151.609733 
L 72.378784 151.866832 
L 72.443844 151.609733 
L 72.86389 151.866832 
L 73.036289 151.352633 
L 73.161366 151.095534 
L 73.510115 150.838434 
L 73.51875 150.324235 
L 73.916545 150.067136 
L 73.930447 149.552937 
L 74.076753 149.295837 
L 74.128623 149.552937 
L 74.483973 149.295837 
L 74.634225 149.552937 
L 74.910165 149.295837 
L 74.915893 149.552937 
L 74.97829 149.038738 
L 75.229683 148.524539 
L 75.233768 148.781638 
L 75.318648 148.524539 
L 75.450187 148.267439 
L 75.529487 148.524539 
L 75.579574 148.267439 
L 75.775068 148.01034 
L 75.795794 147.75324 
L 75.826181 148.01034 
L 76.040419 148.267439 
L 76.18366 148.01034 
L 76.222336 148.267439 
L 76.248779 147.75324 
L 76.256182 147.496141 
L 76.513026 147.239041 
L 76.662346 146.210643 
L 76.774818 146.467743 
L 76.774838 146.210643 
L 76.810446 145.953544 
L 76.939446 146.210643 
L 77.010023 145.696444 
L 77.134066 145.953544 
L 77.315065 145.182245 
L 77.360671 145.439345 
L 77.399284 145.182245 
L 77.452218 144.668046 
L 77.645925 144.410947 
L 77.652293 144.153847 
L 77.740143 144.410947 
L 77.77151 144.668046 
L 77.990579 143.896748 
L 78.01212 144.153847 
L 78.216847 144.410947 
L 78.295868 144.153847 
L 78.382428 143.896748 
L 78.401521 144.153847 
L 78.487297 144.410947 
L 78.77222 143.639648 
L 79.07943 142.61125 
L 79.653019 139.011857 
L 79.880729 139.268957 
L 79.905845 139.011857 
L 80.255574 138.754758 
L 80.327704 138.240559 
L 80.545287 137.983459 
L 80.589259 137.212161 
L 80.752141 136.955061 
L 80.801589 136.183763 
L 80.860047 136.440862 
L 81.135015 135.669564 
L 81.29454 135.412464 
L 81.628835 135.926663 
L 81.673357 135.669564 
L 81.98014 135.155365 
L 82.039369 134.641166 
L 82.489814 133.869867 
L 82.576226 133.355668 
L 82.725324 133.098569 
L 82.732994 133.355668 
L 82.808029 133.098569 
L 82.922737 132.841469 
L 82.97291 133.098569 
L 82.99812 132.841469 
L 83.141144 133.355668 
L 83.538758 132.841469 
L 83.623617 132.32727 
L 84.107314 132.070171 
L 84.179763 131.813072 
L 84.338753 132.070171 
L 84.374744 131.555972 
L 84.491476 131.298873 
L 84.609955 131.555972 
L 84.723167 131.298873 
L 84.882723 131.555972 
L 84.982053 131.298873 
L 85.091867 131.555972 
L 85.234023 131.298873 
L 85.333995 131.555972 
L 85.511154 131.298873 
L 85.530615 131.041773 
L 85.741431 130.784674 
L 85.960627 131.041773 
L 86.190545 130.270475 
L 86.211725 130.527574 
L 86.347642 130.784674 
L 86.482187 130.270475 
L 86.558312 130.784674 
L 86.67985 130.270475 
L 86.823826 129.242077 
L 86.929222 129.499176 
L 86.950271 130.270475 
L 86.990407 130.013375 
L 87.179276 129.242077 
L 87.511516 128.213679 
L 87.866663 129.242077 
L 87.931668 129.499176 
L 87.943233 129.242077 
L 87.952483 128.984977 
L 88.033545 129.242077 
L 88.141349 128.727878 
L 88.153251 128.470778 
L 88.438633 128.213679 
L 88.578932 127.44238 
L 88.582561 127.69948 
L 88.698447 127.956579 
L 88.731476 127.44238 
L 88.79528 127.69948 
L 88.936148 127.44238 
L 89.014535 127.69948 
L 89.075601 127.44238 
L 89.168662 127.69948 
L 89.492592 127.44238 
L 89.554074 127.185281 
L 89.869349 126.928181 
L 89.949872 127.185281 
L 90.214334 126.413982 
L 90.541451 125.899783 
L 90.571306 125.642684 
L 90.63182 125.899783 
L 90.794606 126.413982 
L 91.006566 126.156883 
L 91.093347 125.385584 
L 91.155541 125.642684 
L 91.602796 124.357186 
L 91.657634 124.100087 
L 91.890064 123.842987 
L 91.93335 123.585888 
L 92.082244 123.842987 
L 92.09234 123.328788 
L 92.437377 122.814589 
L 92.438631 122.55749 
L 93.003719 121.786191 
L 93.179357 122.55749 
L 93.183686 122.30039 
L 93.230574 122.043291 
L 93.420269 122.30039 
L 93.762719 121.786191 
L 94.037862 122.043291 
L 94.121902 122.30039 
L 94.133074 122.043291 
L 94.318584 121.529092 
L 94.325939 121.786191 
L 94.36999 121.271992 
L 94.860471 119.986495 
L 95.00598 120.500694 
L 95.118878 119.986495 
L 95.603145 119.729395 
L 95.774584 119.986495 
L 95.92926 119.729395 
L 96.24393 120.243594 
L 96.270197 119.986495 
L 96.298141 120.243594 
L 96.344609 120.500694 
L 96.353759 119.986495 
L 96.367572 119.729395 
L 96.631958 119.472296 
L 96.756682 119.986495 
L 97.176414 119.472296 
L 97.297984 119.729395 
L 97.418663 119.472296 
L 97.499556 119.729395 
L 97.565857 119.472296 
L 97.659939 119.729395 
L 98.081443 118.958097 
L 98.108743 119.215196 
L 98.122628 118.958097 
L 98.291189 119.472296 
L 98.701217 118.443898 
L 98.844789 117.4155 
L 98.984497 117.929699 
L 99.106523 118.186798 
L 99.438303 118.443898 
L 99.497492 118.700997 
L 99.696976 118.958097 
L 99.829687 118.443898 
L 99.829843 118.700997 
L 100.086077 119.472296 
L 100.237819 118.958097 
L 100.579626 119.472296 
L 100.607211 119.729395 
L 100.701554 119.472296 
L 100.778141 119.729395 
L 101.023969 119.472296 
L 101.026229 119.729395 
L 101.20946 119.986495 
L 101.775236 120.500694 
L 102.313737 121.529092 
L 102.377909 121.271992 
L 102.407151 121.529092 
L 102.641344 121.786191 
L 102.729445 121.014893 
L 102.84765 120.757793 
L 103.140722 120.500694 
L 103.147476 120.757793 
L 103.247342 120.500694 
L 103.256436 120.243594 
L 103.698207 119.729395 
L 104.018768 119.215196 
L 104.109307 119.729395 
L 104.257891 119.472296 
L 104.448887 119.729395 
L 104.515314 119.215196 
L 104.64662 119.472296 
L 104.733146 119.215196 
L 105.027534 119.472296 
L 105.139769 119.986495 
L 105.285595 120.500694 
L 105.362362 120.243594 
L 105.502799 120.500694 
L 105.514929 120.757793 
L 105.549639 120.500694 
L 105.634307 120.243594 
L 105.790013 120.500694 
L 106.505081 121.014893 
L 106.577365 121.271992 
L 106.658564 121.014893 
L 106.863788 121.786191 
L 107.264101 121.014893 
L 107.487796 121.271992 
L 107.654725 121.014893 
L 107.960897 121.786191 
L 108.17104 122.30039 
L 108.191579 122.55749 
L 108.622885 122.043291 
L 108.630003 122.30039 
L 108.846445 122.043291 
L 108.894081 121.529092 
L 109.121769 122.30039 
L 109.152809 122.043291 
L 109.370584 122.814589 
L 110.045887 123.328788 
L 110.179066 123.585888 
L 110.297136 123.071689 
L 110.4667 123.328788 
L 110.637987 123.071689 
L 110.717791 123.328788 
L 110.804576 123.071689 
L 111.011314 123.585888 
L 111.231318 123.071689 
L 111.414882 122.814589 
L 111.647241 123.071689 
L 111.799268 123.328788 
L 112.291219 123.071689 
L 112.417159 122.814589 
L 112.635662 123.071689 
L 112.84793 122.814589 
L 112.848823 123.071689 
L 113.106085 122.814589 
L 113.163835 122.55749 
L 113.176519 122.814589 
L 113.254627 123.328788 
L 113.426625 123.585888 
L 113.45602 123.842987 
L 113.478221 123.585888 
L 113.708582 123.842987 
L 113.76082 124.100087 
L 113.771009 123.842987 
L 113.909962 123.328788 
L 114.159449 123.585888 
L 114.509184 123.071689 
L 114.754125 122.814589 
L 115.066932 123.328788 
L 115.190234 123.071689 
L 115.194348 123.328788 
L 115.219956 123.071689 
L 115.35613 122.814589 
L 115.587276 123.071689 
L 116.095757 123.328788 
L 116.264166 123.842987 
L 116.310247 124.100087 
L 116.621232 124.357186 
L 116.754365 123.842987 
L 116.789716 123.585888 
L 116.963773 123.842987 
L 116.982757 123.585888 
L 117.149719 123.842987 
L 117.6456 124.357186 
L 117.739495 124.871385 
L 118.114212 125.899783 
L 119.225067 126.413982 
L 119.764583 126.156883 
L 120.197764 126.928181 
L 120.264946 126.413982 
L 120.597466 126.928181 
L 120.62649 127.185281 
L 120.936598 127.69948 
L 121.468292 127.956579 
L 121.716017 128.470778 
L 122.05766 127.69948 
L 122.060739 127.956579 
L 122.143517 128.470778 
L 122.281251 128.213679 
L 122.343288 128.470778 
L 122.550213 128.213679 
L 122.597857 128.470778 
L 122.679687 128.213679 
L 122.784411 128.470778 
L 122.925697 128.213679 
L 122.981879 128.727878 
L 123.030009 128.470778 
L 123.664012 129.242077 
L 123.670869 129.499176 
L 123.696569 129.242077 
L 124.11774 129.756276 
L 124.409503 130.527574 
L 124.760657 130.784674 
L 124.886946 131.298873 
L 124.997469 131.041773 
L 125.392751 131.298873 
L 125.777907 131.041773 
L 126.204469 131.555972 
L 126.235199 132.070171 
L 126.294012 131.813072 
L 126.337917 131.555972 
L 126.372279 131.813072 
L 126.455006 132.070171 
L 127.665841 131.813072 
L 127.93005 132.32727 
L 128.108097 132.58437 
L 128.248499 132.070171 
L 128.380942 132.58437 
L 128.448058 132.32727 
L 128.838083 132.070171 
L 129.262584 132.58437 
L 129.337865 132.32727 
L 129.796942 133.355668 
L 129.962493 133.098569 
L 130.396974 133.355668 
L 130.582885 133.612768 
L 130.70295 133.355668 
L 131.378552 133.098569 
L 131.483745 132.841469 
L 131.493625 133.098569 
L 131.941894 132.841469 
L 132.133173 132.58437 
L 132.161857 132.841469 
L 132.54995 133.355668 
L 133.129735 133.869867 
L 134.34601 134.126967 
L 134.54728 134.641166 
L 135.016604 134.898265 
L 135.133266 135.155365 
L 135.269885 134.898265 
L 135.322474 135.155365 
L 135.860718 134.898265 
L 135.869387 135.155365 
L 136.181729 135.412464 
L 136.234843 135.669564 
L 136.24193 135.412464 
L 136.660123 135.669564 
L 136.848551 135.412464 
L 136.940121 135.669564 
L 137.722113 135.412464 
L 137.891858 135.669564 
L 137.943344 136.183763 
L 138.518227 135.926663 
L 138.592336 136.183763 
L 139.236315 136.440862 
L 139.407705 135.926663 
L 139.603457 136.183763 
L 139.83724 135.926663 
L 139.844861 136.183763 
L 140.134999 136.440862 
L 140.315048 135.926663 
L 140.927687 137.212161 
L 141.29594 137.46926 
L 141.320375 137.72636 
L 141.537885 137.983459 
L 141.946588 138.240559 
L 142.124233 138.497658 
L 142.92582 138.754758 
L 143.112737 138.497658 
L 143.130093 138.240559 
L 143.341163 137.983459 
L 143.836403 138.240559 
L 144.37544 137.983459 
L 144.3867 137.72636 
L 144.528821 137.983459 
L 144.571857 137.72636 
L 144.637544 137.983459 
L 145.145307 138.240559 
L 145.691985 137.983459 
L 145.846959 138.240559 
L 146.330265 137.983459 
L 146.676503 138.497658 
L 146.73246 139.011857 
L 147.062455 139.268957 
L 147.106243 139.783156 
L 147.184845 139.526056 
L 148.535669 140.040255 
L 148.598879 140.297355 
L 148.875406 140.554454 
L 149.126473 140.040255 
L 149.290881 140.554454 
L 150.228141 141.068653 
L 150.394747 141.582852 
L 150.966007 141.839952 
L 151.654802 141.582852 
L 152.150511 141.839952 
L 152.261588 141.582852 
L 152.912812 141.325753 
L 153.080205 141.068653 
L 153.102638 141.325753 
L 153.132936 141.068653 
L 153.830827 140.811554 
L 153.99161 141.068653 
L 154.707175 140.811554 
L 155.024004 141.325753 
L 155.156417 141.582852 
L 155.587944 141.068653 
L 156.789574 141.582852 
L 156.922299 141.839952 
L 157.499552 142.097051 
L 157.672155 142.61125 
L 158.182582 143.125449 
L 158.317689 143.639648 
L 158.414433 143.896748 
L 158.740367 144.153847 
L 160.920432 143.639648 
L 160.973926 144.153847 
L 161.25165 144.410947 
L 162.124817 144.153847 
L 162.15491 144.410947 
L 163.046043 144.668046 
L 163.634559 144.410947 
L 163.758493 143.896748 
L 164.231558 143.639648 
L 164.743913 143.125449 
L 165.252149 143.896748 
L 165.776684 144.153847 
L 165.913859 144.925146 
L 166.206157 145.182245 
L 166.221511 145.439345 
L 166.482133 145.182245 
L 166.630473 145.953544 
L 167.827461 145.696444 
L 167.83074 145.953544 
L 168.133922 146.210643 
L 168.776064 146.467743 
L 168.893693 146.724842 
L 168.978983 146.467743 
L 168.986201 146.724842 
L 169.523073 146.210643 
L 169.537418 146.467743 
L 169.554714 146.210643 
L 170.03151 145.696444 
L 171.108512 146.210643 
L 172.208194 146.724842 
L 173.013495 146.981942 
L 173.977494 146.724842 
L 175.002035 146.981942 
L 175.603414 146.724842 
L 175.695073 146.981942 
L 176.288171 147.239041 
L 176.690146 147.75324 
L 177.676949 148.01034 
L 181.429724 147.75324 
L 183.404407 148.267439 
L 183.428084 148.524539 
L 184.826028 149.038738 
L 185.099354 149.295837 
L 185.242656 149.038738 
L 186.939062 149.295837 
L 187.460657 149.552937 
L 187.949994 149.295837 
L 189.272613 150.067136 
L 189.664069 149.810036 
L 191.232472 150.067136 
L 191.433925 150.324235 
L 191.45319 150.067136 
L 191.604613 150.324235 
L 191.623423 150.581335 
L 191.764205 150.324235 
L 192.487975 150.581335 
L 192.59668 151.095534 
L 192.784496 150.838434 
L 192.785178 151.352633 
L 193.473425 152.123932 
L 194.298327 152.381031 
L 197.389944 152.89523 
L 197.64715 153.15233 
L 197.835644 153.666529 
L 200.647494 153.923628 
L 201.65031 154.180727 
L 201.982275 154.694926 
L 205.035951 155.723324 
L 205.364342 155.466225 
L 205.782966 155.723324 
L 207.8484 155.980424 
L 210.105473 156.751722 
L 212.000874 157.265921 
L 213.391569 156.751722 
L 213.637867 157.008822 
L 214.732888 156.751722 
L 217.215729 157.008822 
L 220.382363 156.751722 
L 220.550774 156.494623 
L 220.921544 156.237523 
L 221.582372 156.751722 
L 221.699554 157.265921 
L 222.602038 157.523021 
L 225.738203 158.03722 
L 226.045038 158.551419 
L 228.779688 158.808518 
L 228.85869 159.065618 
L 229.875944 159.322717 
L 230.097619 159.065618 
L 231.799867 159.322717 
L 232.127363 159.065618 
L 233.007264 158.808518 
L 233.134639 159.065618 
L 234.097546 159.322717 
L 234.216982 159.579817 
L 234.239898 159.322717 
L 234.379465 159.065618 
L 234.61706 159.322717 
L 236.514337 159.579817 
L 238.432804 159.322717 
L 240.223473 159.836916 
L 242.215427 160.094016 
L 242.310774 160.351115 
L 243.226301 160.865314 
L 244.303979 161.122414 
L 249.900767 161.379513 
L 250.718446 161.636613 
L 251.238827 161.379513 
L 254.915863 162.150812 
L 260.070289 161.893712 
L 260.27904 161.636613 
L 260.664604 161.893712 
L 261.365357 162.150812 
L 261.439316 162.407911 
L 265.269647 162.665011 
L 279.056668 162.92211 
L 279.313427 162.665011 
L 281.234449 163.436309 
L 283.382571 163.693409 
L 294.290369 164.207608 
L 317.23337 164.464707 
L 319.743267 164.721807 
L 347.134375 164.978906 
L 347.134375 164.978906 
" clip-path="url(#p83940619d1)" style="fill: none; stroke: #fa8072; stroke-width: 1.5; stroke-linecap: square"/>
   </g>
   <g id="line2d_10">
    <path d="M 68.134375 164.978906 
L 69.950883 164.978906 
L 70.080381 164.721807 
L 70.352023 164.721807 
L 70.382761 164.464707 
L 70.800829 163.950508 
L 72.255009 163.950508 
L 72.378784 163.436309 
L 72.410044 163.436309 
L 72.443844 163.17921 
L 73.036289 162.92211 
L 74.076753 162.92211 
L 74.128623 162.665011 
L 74.483973 162.665011 
L 74.634225 162.407911 
L 74.910165 162.407911 
L 74.97829 162.150812 
L 75.229683 162.150812 
L 75.318648 161.893712 
L 75.450187 161.893712 
L 75.579574 161.636613 
L 75.795794 161.636613 
L 75.826181 161.379513 
L 76.256182 160.865314 
L 76.662346 160.865314 
L 76.96679 160.351115 
L 77.010023 160.351115 
L 77.17386 160.094016 
L 77.315065 160.094016 
L 77.452218 159.836916 
L 77.652293 159.836916 
L 78.548958 157.523021 
L 79.653019 157.523021 
L 79.905845 157.265921 
L 80.801589 157.265921 
L 80.939074 157.008822 
L 81.29454 157.008822 
L 81.853168 156.494623 
L 82.569564 156.494623 
L 82.576226 156.237523 
L 82.725324 156.237523 
L 82.808029 155.980424 
L 82.922737 155.980424 
L 83.141144 155.209125 
L 84.179763 155.209125 
L 84.374744 154.952026 
L 84.491476 154.952026 
L 85.091867 153.666529 
L 85.234023 153.666529 
L 85.333995 153.409429 
L 85.741431 153.409429 
L 86.032887 153.15233 
L 86.190545 153.15233 
L 86.211725 152.89523 
L 86.414568 152.638131 
L 86.482187 152.638131 
L 86.67985 152.123932 
L 86.823826 152.123932 
L 86.931565 151.609733 
L 86.990407 151.095534 
L 87.511516 151.095534 
L 87.866663 150.067136 
L 88.033545 149.552937 
L 88.578932 149.552937 
L 88.582561 149.295837 
L 89.014535 148.524539 
L 89.075601 148.524539 
L 89.168662 148.01034 
L 89.869349 148.01034 
L 90.063351 147.75324 
L 90.571306 147.75324 
L 90.794606 146.981942 
L 91.093347 146.981942 
L 91.267694 146.724842 
L 91.93335 146.724842 
L 92.09234 146.210643 
L 92.708563 146.210643 
L 92.803119 145.953544 
L 93.003719 145.953544 
L 93.420269 144.925146 
L 93.762719 144.925146 
L 94.037862 144.668046 
L 94.179852 144.153847 
L 94.318584 144.153847 
L 94.36999 143.896748 
L 94.690459 143.896748 
L 94.802628 143.639648 
L 94.860471 143.639648 
L 95.118878 143.125449 
L 95.603145 143.125449 
L 95.774584 142.86835 
L 95.92926 142.86835 
L 96.24393 142.354151 
L 96.270197 142.354151 
L 96.367572 141.839952 
L 96.631958 141.839952 
L 96.756682 141.325753 
L 97.176414 141.325753 
L 97.772023 140.297355 
L 97.786382 140.297355 
L 97.91984 139.783156 
L 98.081443 139.783156 
L 98.221385 139.268957 
L 98.291189 139.011857 
L 98.627451 139.011857 
L 98.7103 138.754758 
L 98.844789 138.754758 
L 99.106523 137.72636 
L 99.438303 137.46926 
L 99.497492 137.212161 
L 99.829843 136.697962 
L 100.206548 135.926663 
L 100.237819 135.926663 
L 100.579626 135.412464 
L 100.701554 135.155365 
L 100.778141 134.898265 
L 101.023969 134.898265 
L 101.026229 134.641166 
L 101.20946 134.384066 
L 101.775236 133.869867 
L 102.313737 132.841469 
L 102.377909 132.841469 
L 102.407151 132.58437 
L 102.729445 132.32727 
L 103.140722 132.32727 
L 103.256436 132.070171 
L 104.018768 132.070171 
L 104.109307 131.555972 
L 104.257891 131.555972 
L 104.733146 131.041773 
L 105.027534 130.784674 
L 105.139769 130.270475 
L 105.285595 129.756276 
L 105.362362 129.756276 
L 105.502799 129.499176 
L 105.549639 129.242077 
L 105.634307 129.242077 
L 105.790013 128.984977 
L 106.505081 128.470778 
L 106.863788 127.44238 
L 107.264101 127.44238 
L 107.487796 127.185281 
L 107.654725 127.185281 
L 107.960897 126.413982 
L 108.17104 125.899783 
L 108.191579 125.642684 
L 108.622885 125.642684 
L 108.630003 125.385584 
L 108.894081 125.385584 
L 109.370584 123.842987 
L 110.045887 123.328788 
L 110.297136 123.071689 
L 110.4667 122.814589 
L 110.637987 122.814589 
L 110.804576 122.55749 
L 111.231318 121.786191 
L 111.414882 121.786191 
L 111.647241 121.529092 
L 111.799268 121.014893 
L 112.417159 121.014893 
L 112.635662 120.757793 
L 112.84793 120.757793 
L 112.848823 120.500694 
L 113.163835 120.500694 
L 113.254627 119.729395 
L 113.426625 119.472296 
L 113.478221 119.215196 
L 113.708582 118.958097 
L 113.796267 118.700997 
L 113.909962 118.700997 
L 114.273682 118.443898 
L 114.754125 118.443898 
L 115.190234 117.929699 
L 115.219956 117.672599 
L 115.35613 117.672599 
L 115.587276 117.4155 
L 116.095757 117.1584 
L 116.264166 116.644201 
L 116.310247 116.387102 
L 117.482217 115.358704 
L 117.6456 115.101604 
L 117.739495 114.587405 
L 118.114212 113.559007 
L 119.225067 113.044808 
L 119.764583 113.044808 
L 120.936598 110.988012 
L 121.468292 110.730913 
L 121.850386 110.216714 
L 122.05766 110.216714 
L 122.143517 109.445416 
L 122.281251 109.445416 
L 122.343288 109.188316 
L 122.550213 109.188316 
L 122.679687 108.931217 
L 122.784411 108.674117 
L 122.925697 108.674117 
L 123.030009 108.159918 
L 123.664012 107.38862 
L 123.696569 107.13152 
L 124.11774 106.617321 
L 124.409503 105.846023 
L 124.760657 105.588923 
L 124.997469 105.074724 
L 125.392751 104.817625 
L 125.777907 104.817625 
L 126.204469 104.303426 
L 126.294012 103.789227 
L 126.337917 103.789227 
L 126.455006 103.275028 
L 127.665841 103.275028 
L 127.93005 102.760829 
L 128.205498 102.503729 
L 128.248499 102.503729 
L 128.448058 101.98953 
L 128.838083 101.98953 
L 129.649663 100.961132 
L 129.796942 100.446933 
L 129.962493 100.446933 
L 130.396974 100.189834 
L 130.70295 99.932734 
L 131.483745 99.932734 
L 131.493625 99.675635 
L 132.133173 99.675635 
L 132.161857 99.418535 
L 132.54995 98.904336 
L 133.129735 98.390137 
L 134.34601 98.133038 
L 134.54728 97.618839 
L 135.016604 97.361739 
L 135.133266 97.10464 
L 135.269885 97.10464 
L 135.322474 96.84754 
L 135.860718 96.84754 
L 135.869387 96.590441 
L 136.181729 96.333341 
L 136.24193 96.076242 
L 136.940121 95.562043 
L 137.722113 95.562043 
L 137.891858 95.304943 
L 137.943344 94.790744 
L 138.518227 94.790744 
L 138.592336 94.276545 
L 139.83724 93.762346 
L 139.844861 93.505247 
L 140.186636 93.248147 
L 140.315048 93.248147 
L 140.927687 91.96265 
L 141.29594 91.70555 
L 141.320375 91.448451 
L 141.537885 91.191351 
L 141.946588 90.934252 
L 142.124233 90.677152 
L 143.130093 90.420053 
L 143.341163 90.420053 
L 143.836403 90.162953 
L 144.3867 90.162953 
L 144.637544 89.648754 
L 145.145307 89.391655 
L 145.691985 89.391655 
L 145.846959 89.134555 
L 146.330265 89.134555 
L 146.676503 88.620357 
L 146.73246 88.106158 
L 147.062455 87.849058 
L 147.184845 87.334859 
L 148.535669 86.82066 
L 148.598879 86.563561 
L 148.943791 86.306461 
L 149.126473 86.306461 
L 149.290881 85.792262 
L 150.228141 85.278063 
L 150.394747 84.763864 
L 150.966007 84.506765 
L 151.654802 84.506765 
L 152.261588 84.249665 
L 153.080205 84.249665 
L 153.132936 83.992566 
L 153.830827 83.992566 
L 153.99161 83.735466 
L 154.707175 83.735466 
L 155.024004 83.221267 
L 155.156417 82.964168 
L 155.587944 82.964168 
L 156.789574 82.449969 
L 156.922299 82.192869 
L 157.499552 81.93577 
L 157.672155 81.421571 
L 158.182582 80.907372 
L 158.317689 80.393173 
L 158.414433 80.136073 
L 158.740367 79.878974 
L 160.920432 79.878974 
L 160.973926 79.364775 
L 161.25165 79.107675 
L 162.124817 79.107675 
L 162.15491 78.850576 
L 163.046043 78.593476 
L 164.743913 78.593476 
L 165.252149 77.822178 
L 165.776684 77.565078 
L 165.913859 76.79378 
L 166.206157 76.53668 
L 166.221511 76.279581 
L 166.482133 76.279581 
L 166.630473 75.508282 
L 167.827461 75.508282 
L 167.83074 75.251183 
L 168.133922 74.994083 
L 168.776064 74.736984 
L 168.986201 74.222785 
L 169.523073 74.222785 
L 169.554714 73.965685 
L 170.03151 73.965685 
L 171.108512 73.451486 
L 172.208194 72.937287 
L 173.013495 72.680188 
L 173.977494 72.680188 
L 175.002035 72.423088 
L 175.603414 72.423088 
L 175.695073 72.165989 
L 176.288171 71.908889 
L 176.690146 71.39469 
L 177.676949 71.137591 
L 181.429724 71.137591 
L 183.404407 70.623392 
L 183.428084 70.366292 
L 184.826028 69.852093 
L 185.242656 69.594994 
L 186.939062 69.337894 
L 187.460657 69.080795 
L 187.949994 69.080795 
L 189.272613 68.309496 
L 189.664069 68.309496 
L 191.232472 68.052397 
L 191.604613 67.538198 
L 191.623423 67.281098 
L 191.764205 67.281098 
L 192.487975 67.023999 
L 192.59668 66.5098 
L 192.784496 66.5098 
L 192.785178 65.995601 
L 193.473425 65.224303 
L 194.298327 64.967203 
L 197.389944 64.453004 
L 197.64715 64.195905 
L 197.835644 63.681706 
L 200.647494 63.424606 
L 201.65031 63.167507 
L 201.982275 62.653308 
L 205.782966 61.36781 
L 207.8484 61.110711 
L 210.105473 60.339412 
L 212.000874 59.825213 
L 213.391569 59.825213 
L 213.637867 59.568114 
L 214.732888 59.568114 
L 217.215729 59.311014 
L 220.921544 59.311014 
L 221.582372 58.796815 
L 221.699554 58.282616 
L 222.602038 58.025517 
L 225.738203 57.511318 
L 226.045038 56.997119 
L 228.779688 56.740019 
L 228.85869 56.48292 
L 230.097619 56.22582 
L 232.127363 55.968721 
L 233.007264 55.968721 
L 233.134639 55.711621 
L 234.097546 55.454522 
L 234.239898 55.197422 
L 234.379465 55.197422 
L 234.61706 54.940323 
L 236.514337 54.683223 
L 238.432804 54.683223 
L 240.223473 54.169024 
L 242.215427 53.911925 
L 242.310774 53.654825 
L 243.226301 53.140626 
L 244.303979 52.883527 
L 249.900767 52.626427 
L 250.718446 52.369328 
L 251.238827 52.369328 
L 254.915863 51.598029 
L 260.27904 51.598029 
L 260.664604 51.34093 
L 261.365357 51.08383 
L 261.439316 50.826731 
L 265.269647 50.569631 
L 279.313427 50.312532 
L 281.234449 49.541233 
L 283.382571 49.284134 
L 294.290369 48.769935 
L 317.23337 48.512835 
L 319.743267 48.255736 
L 347.134375 47.998636 
L 347.134375 47.998636 
" clip-path="url(#p83940619d1)" style="fill: none; stroke: #4682b4; stroke-width: 1.5; stroke-linecap: square"/>
   </g>
   <g id="patch_3">
    <path d="M 54.184375 164.978906 
L 54.184375 12.518906 
" style="fill: none; stroke: #000000; stroke-width: 0.8; stroke-linejoin: miter; stroke-linecap: square"/>
   </g>
   <g id="patch_4">
    <path d="M 54.184375 164.978906 
L 361.084375 164.978906 
" style="fill: none; stroke: #000000; stroke-width: 0.8; stroke-linejoin: miter; stroke-linecap: square"/>
   </g>
   <g id="legend_1">
    <g id="patch_5">
     <path d="M 296.756563 121.672969 
L 351.284375 121.672969 
Q 354.084375 121.672969 354.084375 118.872969 
L 354.084375 58.624844 
Q 354.084375 55.824844 351.284375 55.824844 
L 296.756563 55.824844 
Q 293.956563 55.824844 293.956563 58.624844 
L 293.956563 118.872969 
Q 293.956563 121.672969 296.756563 121.672969 
z
" style="fill: #ffffff; opacity: 0.8; stroke: #cccccc; stroke-linejoin: miter"/>
    </g>
    <g id="line2d_11">
     <path d="M 299.556563 67.162656 
L 313.556563 67.162656 
L 327.556563 67.162656 
" style="fill: none; stroke: #2e8b57; stroke-width: 1.5; stroke-linecap: square"/>
    </g>
    <g id="text_10">
     <!-- S -->
     <g transform="translate(338.756563 72.062656) scale(0.14 -0.14)">
      <defs>
       <path id="DejaVuSans-53" d="M 3425 4513 
L 3425 3897 
Q 3066 4069 2747 4153 
Q 2428 4238 2131 4238 
Q 1616 4238 1336 4038 
Q 1056 3838 1056 3469 
Q 1056 3159 1242 3001 
Q 1428 2844 1947 2747 
L 2328 2669 
Q 3034 2534 3370 2195 
Q 3706 1856 3706 1288 
Q 3706 609 3251 259 
Q 2797 -91 1919 -91 
Q 1588 -91 1214 -16 
Q 841 59 441 206 
L 441 856 
Q 825 641 1194 531 
Q 1563 422 1919 422 
Q 2459 422 2753 634 
Q 3047 847 3047 1241 
Q 3047 1584 2836 1778 
Q 2625 1972 2144 2069 
L 1759 2144 
Q 1053 2284 737 2584 
Q 422 2884 422 3419 
Q 422 4038 858 4394 
Q 1294 4750 2059 4750 
Q 2388 4750 2728 4690 
Q 3069 4631 3425 4513 
z
" transform="scale(0.015625)"/>
      </defs>
      <use xlink:href="#DejaVuSans-53"/>
     </g>
    </g>
    <g id="line2d_12">
     <path d="M 299.556563 87.712031 
L 313.556563 87.712031 
L 327.556563 87.712031 
" style="fill: none; stroke: #fa8072; stroke-width: 1.5; stroke-linecap: square"/>
    </g>
    <g id="text_11">
     <!-- I -->
     <g transform="translate(338.756563 92.612031) scale(0.14 -0.14)">
      <defs>
       <path id="DejaVuSans-49" d="M 628 4666 
L 1259 4666 
L 1259 0 
L 628 0 
L 628 4666 
z
" transform="scale(0.015625)"/>
      </defs>
      <use xlink:href="#DejaVuSans-49"/>
     </g>
    </g>
    <g id="line2d_13">
     <path d="M 299.556563 108.261406 
L 313.556563 108.261406 
L 327.556563 108.261406 
" style="fill: none; stroke: #4682b4; stroke-width: 1.5; stroke-linecap: square"/>
    </g>
    <g id="text_12">
     <!-- R -->
     <g transform="translate(338.756563 113.161406) scale(0.14 -0.14)">
      <defs>
       <path id="DejaVuSans-52" d="M 2841 2188 
Q 3044 2119 3236 1894 
Q 3428 1669 3622 1275 
L 4263 0 
L 3584 0 
L 2988 1197 
Q 2756 1666 2539 1819 
Q 2322 1972 1947 1972 
L 1259 1972 
L 1259 0 
L 628 0 
L 628 4666 
L 2053 4666 
Q 2853 4666 3247 4331 
Q 3641 3997 3641 3322 
Q 3641 2881 3436 2590 
Q 3231 2300 2841 2188 
z
M 1259 4147 
L 1259 2491 
L 2053 2491 
Q 2509 2491 2742 2702 
Q 2975 2913 2975 3322 
Q 2975 3731 2742 3939 
Q 2509 4147 2053 4147 
L 1259 4147 
z
" transform="scale(0.015625)"/>
      </defs>
      <use xlink:href="#DejaVuSans-52"/>
     </g>
    </g>
   </g>
  </g>
 </g>
 <defs>
  <clipPath id="p83940619d1">
   <rect x="54.184375" y="12.518906" width="306.9" height="152.46"/>
  </clipPath>
 </defs>
</svg>
