<?xml version="1.0" encoding="utf-8" standalone="no"?>
<!DOCTYPE svg PUBLIC "-//W3C//DTD SVG 1.1//EN"
  "http://www.w3.org/Graphics/SVG/1.1/DTD/svg11.dtd">
<svg xmlns:xlink="http://www.w3.org/1999/xlink" width="279.44375pt" height="164.066563pt" viewBox="0 0 279.44375 164.066563" xmlns="http://www.w3.org/2000/svg" version="1.1">
 <metadata>
  <rdf:RDF xmlns:dc="http://purl.org/dc/elements/1.1/" xmlns:cc="http://creativecommons.org/ns#" xmlns:rdf="http://www.w3.org/1999/02/22-rdf-syntax-ns#">
   <cc:Work>
    <dc:type rdf:resource="http://purl.org/dc/dcmitype/StillImage"/>
    <dc:date>2025-07-07T17:52:16.246056</dc:date>
    <dc:format>image/svg+xml</dc:format>
    <dc:creator>
     <cc:Agent>
      <dc:title>Matplotlib v3.10.1, https://matplotlib.org/</dc:title>
     </cc:Agent>
    </dc:creator>
   </cc:Work>
  </rdf:RDF>
 </metadata>
 <defs>
  <style type="text/css">*{stroke-linejoin: round; stroke-linecap: butt}</style>
 </defs>
 <g id="figure_1">
  <g id="patch_1">
   <path d="M 0 164.066563 
L 279.44375 164.066563 
L 279.44375 0 
L 0 0 
z
" style="fill: #ffffff"/>
  </g>
  <g id="axes_1">
   <g id="patch_2">
    <path d="M 49.04375 122.639062 
L 272.24375 122.639062 
L 272.24375 11.759062 
L 49.04375 11.759062 
z
" style="fill: #ffffff"/>
   </g>
   <g id="matplotlib.axis_1">
    <g id="xtick_1">
     <g id="line2d_1">
      <defs>
       <path id="m9917a25b75" d="M 0 0 
L 0 3.5 
" style="stroke: #000000; stroke-width: 0.8"/>
      </defs>
      <g>
       <use xlink:href="#m9917a25b75" x="59.189205" y="122.639062" style="stroke: #000000; stroke-width: 0.8"/>
      </g>
     </g>
     <g id="text_1">
      <!-- 0 -->
      <g transform="translate(55.371705 138.757187) scale(0.12 -0.12)">
       <defs>
        <path id="DejaVuSans-30" d="M 2034 4250 
Q 1547 4250 1301 3770 
Q 1056 3291 1056 2328 
Q 1056 1369 1301 889 
Q 1547 409 2034 409 
Q 2525 409 2770 889 
Q 3016 1369 3016 2328 
Q 3016 3291 2770 3770 
Q 2525 4250 2034 4250 
z
M 2034 4750 
Q 2819 4750 3233 4129 
Q 3647 3509 3647 2328 
Q 3647 1150 3233 529 
Q 2819 -91 2034 -91 
Q 1250 -91 836 529 
Q 422 1150 422 2328 
Q 422 3509 836 4129 
Q 1250 4750 2034 4750 
z
" transform="scale(0.015625)"/>
       </defs>
       <use xlink:href="#DejaVuSans-30"/>
      </g>
     </g>
    </g>
    <g id="xtick_2">
     <g id="line2d_2">
      <g>
       <use xlink:href="#m9917a25b75" x="125.163671" y="122.639062" style="stroke: #000000; stroke-width: 0.8"/>
      </g>
     </g>
     <g id="text_2">
      <!-- 50 -->
      <g transform="translate(117.528671 138.757187) scale(0.12 -0.12)">
       <defs>
        <path id="DejaVuSans-35" d="M 691 4666 
L 3169 4666 
L 3169 4134 
L 1269 4134 
L 1269 2991 
Q 1406 3038 1543 3061 
Q 1681 3084 1819 3084 
Q 2600 3084 3056 2656 
Q 3513 2228 3513 1497 
Q 3513 744 3044 326 
Q 2575 -91 1722 -91 
Q 1428 -91 1123 -41 
Q 819 9 494 109 
L 494 744 
Q 775 591 1075 516 
Q 1375 441 1709 441 
Q 2250 441 2565 725 
Q 2881 1009 2881 1497 
Q 2881 1984 2565 2268 
Q 2250 2553 1709 2553 
Q 1456 2553 1204 2497 
Q 953 2441 691 2322 
L 691 4666 
z
" transform="scale(0.015625)"/>
       </defs>
       <use xlink:href="#DejaVuSans-35"/>
       <use xlink:href="#DejaVuSans-30" transform="translate(63.623047 0)"/>
      </g>
     </g>
    </g>
    <g id="xtick_3">
     <g id="line2d_3">
      <g>
       <use xlink:href="#m9917a25b75" x="191.138137" y="122.639062" style="stroke: #000000; stroke-width: 0.8"/>
      </g>
     </g>
     <g id="text_3">
      <!-- 100 -->
      <g transform="translate(179.685637 138.757187) scale(0.12 -0.12)">
       <defs>
        <path id="DejaVuSans-31" d="M 794 531 
L 1825 531 
L 1825 4091 
L 703 3866 
L 703 4441 
L 1819 4666 
L 2450 4666 
L 2450 531 
L 3481 531 
L 3481 0 
L 794 0 
L 794 531 
z
" transform="scale(0.015625)"/>
       </defs>
       <use xlink:href="#DejaVuSans-31"/>
       <use xlink:href="#DejaVuSans-30" transform="translate(63.623047 0)"/>
       <use xlink:href="#DejaVuSans-30" transform="translate(127.246094 0)"/>
      </g>
     </g>
    </g>
    <g id="xtick_4">
     <g id="line2d_4">
      <g>
       <use xlink:href="#m9917a25b75" x="257.112604" y="122.639062" style="stroke: #000000; stroke-width: 0.8"/>
      </g>
     </g>
     <g id="text_4">
      <!-- 150 -->
      <g transform="translate(245.660104 138.757187) scale(0.12 -0.12)">
       <use xlink:href="#DejaVuSans-31"/>
       <use xlink:href="#DejaVuSans-35" transform="translate(63.623047 0)"/>
       <use xlink:href="#DejaVuSans-30" transform="translate(127.246094 0)"/>
      </g>
     </g>
    </g>
    <g id="text_5">
     <!-- Time, $t$ -->
     <g transform="translate(139.76375 154.370937) scale(0.12 -0.12)">
      <defs>
       <path id="DejaVuSans-54" d="M -19 4666 
L 3928 4666 
L 3928 4134 
L 2272 4134 
L 2272 0 
L 1638 0 
L 1638 4134 
L -19 4134 
L -19 4666 
z
" transform="scale(0.015625)"/>
       <path id="DejaVuSans-69" d="M 603 3500 
L 1178 3500 
L 1178 0 
L 603 0 
L 603 3500 
z
M 603 4863 
L 1178 4863 
L 1178 4134 
L 603 4134 
L 603 4863 
z
" transform="scale(0.015625)"/>
       <path id="DejaVuSans-6d" d="M 3328 2828 
Q 3544 3216 3844 3400 
Q 4144 3584 4550 3584 
Q 5097 3584 5394 3201 
Q 5691 2819 5691 2113 
L 5691 0 
L 5113 0 
L 5113 2094 
Q 5113 2597 4934 2840 
Q 4756 3084 4391 3084 
Q 3944 3084 3684 2787 
Q 3425 2491 3425 1978 
L 3425 0 
L 2847 0 
L 2847 2094 
Q 2847 2600 2669 2842 
Q 2491 3084 2119 3084 
Q 1678 3084 1418 2786 
Q 1159 2488 1159 1978 
L 1159 0 
L 581 0 
L 581 3500 
L 1159 3500 
L 1159 2956 
Q 1356 3278 1631 3431 
Q 1906 3584 2284 3584 
Q 2666 3584 2933 3390 
Q 3200 3197 3328 2828 
z
" transform="scale(0.015625)"/>
       <path id="DejaVuSans-65" d="M 3597 1894 
L 3597 1613 
L 953 1613 
Q 991 1019 1311 708 
Q 1631 397 2203 397 
Q 2534 397 2845 478 
Q 3156 559 3463 722 
L 3463 178 
Q 3153 47 2828 -22 
Q 2503 -91 2169 -91 
Q 1331 -91 842 396 
Q 353 884 353 1716 
Q 353 2575 817 3079 
Q 1281 3584 2069 3584 
Q 2775 3584 3186 3129 
Q 3597 2675 3597 1894 
z
M 3022 2063 
Q 3016 2534 2758 2815 
Q 2500 3097 2075 3097 
Q 1594 3097 1305 2825 
Q 1016 2553 972 2059 
L 3022 2063 
z
" transform="scale(0.015625)"/>
       <path id="DejaVuSans-2c" d="M 750 794 
L 1409 794 
L 1409 256 
L 897 -744 
L 494 -744 
L 750 256 
L 750 794 
z
" transform="scale(0.015625)"/>
       <path id="DejaVuSans-20" transform="scale(0.015625)"/>
       <path id="Cmmi10-74" d="M 397 519 
Q 397 613 416 697 
L 878 2534 
L 206 2534 
Q 141 2534 141 2619 
Q 166 2759 225 2759 
L 934 2759 
L 1191 3803 
Q 1216 3888 1291 3947 
Q 1366 4006 1459 4006 
Q 1541 4006 1595 3957 
Q 1650 3909 1650 3828 
Q 1650 3809 1648 3798 
Q 1647 3788 1644 3775 
L 1388 2759 
L 2047 2759 
Q 2113 2759 2113 2675 
Q 2109 2659 2100 2621 
Q 2091 2584 2075 2559 
Q 2059 2534 2028 2534 
L 1331 2534 
L 872 684 
Q 825 503 825 372 
Q 825 97 1013 97 
Q 1294 97 1511 361 
Q 1728 625 1844 941 
Q 1869 978 1894 978 
L 1972 978 
Q 1997 978 2012 961 
Q 2028 944 2028 922 
Q 2028 909 2022 903 
Q 1881 516 1612 222 
Q 1344 -72 997 -72 
Q 744 -72 570 93 
Q 397 259 397 519 
z
" transform="scale(0.015625)"/>
      </defs>
      <use xlink:href="#DejaVuSans-54" transform="translate(0 0.015625)"/>
      <use xlink:href="#DejaVuSans-69" transform="translate(61.083984 0.015625)"/>
      <use xlink:href="#DejaVuSans-6d" transform="translate(88.867188 0.015625)"/>
      <use xlink:href="#DejaVuSans-65" transform="translate(186.279297 0.015625)"/>
      <use xlink:href="#DejaVuSans-2c" transform="translate(247.802734 0.015625)"/>
      <use xlink:href="#DejaVuSans-20" transform="translate(279.589844 0.015625)"/>
      <use xlink:href="#Cmmi10-74" transform="translate(311.376953 0.015625)"/>
     </g>
    </g>
   </g>
   <g id="matplotlib.axis_2">
    <g id="ytick_1">
     <g id="line2d_5">
      <defs>
       <path id="m2ee1b9e8e3" d="M 0 0 
L -3.5 0 
" style="stroke: #000000; stroke-width: 0.8"/>
      </defs>
      <g>
       <use xlink:href="#m2ee1b9e8e3" x="49.04375" y="122.639062" style="stroke: #000000; stroke-width: 0.8"/>
      </g>
     </g>
     <g id="text_6">
      <!-- 0.0 -->
      <g transform="translate(22.96 127.198125) scale(0.12 -0.12)">
       <defs>
        <path id="DejaVuSans-2e" d="M 684 794 
L 1344 794 
L 1344 0 
L 684 0 
L 684 794 
z
" transform="scale(0.015625)"/>
       </defs>
       <use xlink:href="#DejaVuSans-30"/>
       <use xlink:href="#DejaVuSans-2e" transform="translate(63.623047 0)"/>
       <use xlink:href="#DejaVuSans-30" transform="translate(95.410156 0)"/>
      </g>
     </g>
    </g>
    <g id="ytick_2">
     <g id="line2d_6">
      <g>
       <use xlink:href="#m2ee1b9e8e3" x="49.04375" y="67.199062" style="stroke: #000000; stroke-width: 0.8"/>
      </g>
     </g>
     <g id="text_7">
      <!-- 0.5 -->
      <g transform="translate(22.96 71.758125) scale(0.12 -0.12)">
       <use xlink:href="#DejaVuSans-30"/>
       <use xlink:href="#DejaVuSans-2e" transform="translate(63.623047 0)"/>
       <use xlink:href="#DejaVuSans-35" transform="translate(95.410156 0)"/>
      </g>
     </g>
    </g>
    <g id="ytick_3">
     <g id="line2d_7">
      <g>
       <use xlink:href="#m2ee1b9e8e3" x="49.04375" y="11.759062" style="stroke: #000000; stroke-width: 0.8"/>
      </g>
     </g>
     <g id="text_8">
      <!-- 1.0 -->
      <g transform="translate(22.96 16.318125) scale(0.12 -0.12)">
       <use xlink:href="#DejaVuSans-31"/>
       <use xlink:href="#DejaVuSans-2e" transform="translate(63.623047 0)"/>
       <use xlink:href="#DejaVuSans-30" transform="translate(95.410156 0)"/>
      </g>
     </g>
    </g>
    <g id="text_9">
     <!-- Fraction of nodes, $\rho$ -->
     <g transform="translate(16.32 126.239062) rotate(-90) scale(0.12 -0.12)">
      <defs>
       <path id="DejaVuSans-46" d="M 628 4666 
L 3309 4666 
L 3309 4134 
L 1259 4134 
L 1259 2759 
L 3109 2759 
L 3109 2228 
L 1259 2228 
L 1259 0 
L 628 0 
L 628 4666 
z
" transform="scale(0.015625)"/>
       <path id="DejaVuSans-72" d="M 2631 2963 
Q 2534 3019 2420 3045 
Q 2306 3072 2169 3072 
Q 1681 3072 1420 2755 
Q 1159 2438 1159 1844 
L 1159 0 
L 581 0 
L 581 3500 
L 1159 3500 
L 1159 2956 
Q 1341 3275 1631 3429 
Q 1922 3584 2338 3584 
Q 2397 3584 2469 3576 
Q 2541 3569 2628 3553 
L 2631 2963 
z
" transform="scale(0.015625)"/>
       <path id="DejaVuSans-61" d="M 2194 1759 
Q 1497 1759 1228 1600 
Q 959 1441 959 1056 
Q 959 750 1161 570 
Q 1363 391 1709 391 
Q 2188 391 2477 730 
Q 2766 1069 2766 1631 
L 2766 1759 
L 2194 1759 
z
M 3341 1997 
L 3341 0 
L 2766 0 
L 2766 531 
Q 2569 213 2275 61 
Q 1981 -91 1556 -91 
Q 1019 -91 701 211 
Q 384 513 384 1019 
Q 384 1609 779 1909 
Q 1175 2209 1959 2209 
L 2766 2209 
L 2766 2266 
Q 2766 2663 2505 2880 
Q 2244 3097 1772 3097 
Q 1472 3097 1187 3025 
Q 903 2953 641 2809 
L 641 3341 
Q 956 3463 1253 3523 
Q 1550 3584 1831 3584 
Q 2591 3584 2966 3190 
Q 3341 2797 3341 1997 
z
" transform="scale(0.015625)"/>
       <path id="DejaVuSans-63" d="M 3122 3366 
L 3122 2828 
Q 2878 2963 2633 3030 
Q 2388 3097 2138 3097 
Q 1578 3097 1268 2742 
Q 959 2388 959 1747 
Q 959 1106 1268 751 
Q 1578 397 2138 397 
Q 2388 397 2633 464 
Q 2878 531 3122 666 
L 3122 134 
Q 2881 22 2623 -34 
Q 2366 -91 2075 -91 
Q 1284 -91 818 406 
Q 353 903 353 1747 
Q 353 2603 823 3093 
Q 1294 3584 2113 3584 
Q 2378 3584 2631 3529 
Q 2884 3475 3122 3366 
z
" transform="scale(0.015625)"/>
       <path id="DejaVuSans-74" d="M 1172 4494 
L 1172 3500 
L 2356 3500 
L 2356 3053 
L 1172 3053 
L 1172 1153 
Q 1172 725 1289 603 
Q 1406 481 1766 481 
L 2356 481 
L 2356 0 
L 1766 0 
Q 1100 0 847 248 
Q 594 497 594 1153 
L 594 3053 
L 172 3053 
L 172 3500 
L 594 3500 
L 594 4494 
L 1172 4494 
z
" transform="scale(0.015625)"/>
       <path id="DejaVuSans-6f" d="M 1959 3097 
Q 1497 3097 1228 2736 
Q 959 2375 959 1747 
Q 959 1119 1226 758 
Q 1494 397 1959 397 
Q 2419 397 2687 759 
Q 2956 1122 2956 1747 
Q 2956 2369 2687 2733 
Q 2419 3097 1959 3097 
z
M 1959 3584 
Q 2709 3584 3137 3096 
Q 3566 2609 3566 1747 
Q 3566 888 3137 398 
Q 2709 -91 1959 -91 
Q 1206 -91 779 398 
Q 353 888 353 1747 
Q 353 2609 779 3096 
Q 1206 3584 1959 3584 
z
" transform="scale(0.015625)"/>
       <path id="DejaVuSans-6e" d="M 3513 2113 
L 3513 0 
L 2938 0 
L 2938 2094 
Q 2938 2591 2744 2837 
Q 2550 3084 2163 3084 
Q 1697 3084 1428 2787 
Q 1159 2491 1159 1978 
L 1159 0 
L 581 0 
L 581 3500 
L 1159 3500 
L 1159 2956 
Q 1366 3272 1645 3428 
Q 1925 3584 2291 3584 
Q 2894 3584 3203 3211 
Q 3513 2838 3513 2113 
z
" transform="scale(0.015625)"/>
       <path id="DejaVuSans-66" d="M 2375 4863 
L 2375 4384 
L 1825 4384 
Q 1516 4384 1395 4259 
Q 1275 4134 1275 3809 
L 1275 3500 
L 2222 3500 
L 2222 3053 
L 1275 3053 
L 1275 0 
L 697 0 
L 697 3053 
L 147 3053 
L 147 3500 
L 697 3500 
L 697 3744 
Q 697 4328 969 4595 
Q 1241 4863 1831 4863 
L 2375 4863 
z
" transform="scale(0.015625)"/>
       <path id="DejaVuSans-64" d="M 2906 2969 
L 2906 4863 
L 3481 4863 
L 3481 0 
L 2906 0 
L 2906 525 
Q 2725 213 2448 61 
Q 2172 -91 1784 -91 
Q 1150 -91 751 415 
Q 353 922 353 1747 
Q 353 2572 751 3078 
Q 1150 3584 1784 3584 
Q 2172 3584 2448 3432 
Q 2725 3281 2906 2969 
z
M 947 1747 
Q 947 1113 1208 752 
Q 1469 391 1925 391 
Q 2381 391 2643 752 
Q 2906 1113 2906 1747 
Q 2906 2381 2643 2742 
Q 2381 3103 1925 3103 
Q 1469 3103 1208 2742 
Q 947 2381 947 1747 
z
" transform="scale(0.015625)"/>
       <path id="DejaVuSans-73" d="M 2834 3397 
L 2834 2853 
Q 2591 2978 2328 3040 
Q 2066 3103 1784 3103 
Q 1356 3103 1142 2972 
Q 928 2841 928 2578 
Q 928 2378 1081 2264 
Q 1234 2150 1697 2047 
L 1894 2003 
Q 2506 1872 2764 1633 
Q 3022 1394 3022 966 
Q 3022 478 2636 193 
Q 2250 -91 1575 -91 
Q 1294 -91 989 -36 
Q 684 19 347 128 
L 347 722 
Q 666 556 975 473 
Q 1284 391 1588 391 
Q 1994 391 2212 530 
Q 2431 669 2431 922 
Q 2431 1156 2273 1281 
Q 2116 1406 1581 1522 
L 1381 1569 
Q 847 1681 609 1914 
Q 372 2147 372 2553 
Q 372 3047 722 3315 
Q 1072 3584 1716 3584 
Q 2034 3584 2315 3537 
Q 2597 3491 2834 3397 
z
" transform="scale(0.015625)"/>
       <path id="Cmmi10-bd" d="M 178 -1203 
Q 178 -1166 184 -1153 
L 819 1403 
Q 909 1747 1129 2076 
Q 1350 2406 1662 2617 
Q 1975 2828 2322 2828 
Q 2600 2828 2808 2683 
Q 3016 2538 3120 2302 
Q 3225 2066 3225 1784 
Q 3225 1475 3098 1144 
Q 2972 813 2748 538 
Q 2525 263 2234 95 
Q 1944 -72 1625 -72 
Q 1438 -72 1272 39 
Q 1106 150 1013 331 
L 634 -1178 
Q 616 -1269 541 -1325 
Q 466 -1381 372 -1381 
Q 294 -1381 236 -1332 
Q 178 -1284 178 -1203 
z
M 1638 97 
Q 1978 97 2229 445 
Q 2481 794 2614 1264 
Q 2747 1734 2747 2059 
Q 2747 2303 2640 2483 
Q 2534 2663 2309 2663 
Q 2031 2663 1818 2452 
Q 1606 2241 1478 1956 
Q 1350 1672 1269 1363 
L 1094 647 
Q 1134 416 1276 256 
Q 1419 97 1638 97 
z
" transform="scale(0.015625)"/>
      </defs>
      <use xlink:href="#DejaVuSans-46" transform="translate(0 0.015625)"/>
      <use xlink:href="#DejaVuSans-72" transform="translate(57.519531 0.015625)"/>
      <use xlink:href="#DejaVuSans-61" transform="translate(98.632812 0.015625)"/>
      <use xlink:href="#DejaVuSans-63" transform="translate(159.912109 0.015625)"/>
      <use xlink:href="#DejaVuSans-74" transform="translate(214.892578 0.015625)"/>
      <use xlink:href="#DejaVuSans-69" transform="translate(254.101562 0.015625)"/>
      <use xlink:href="#DejaVuSans-6f" transform="translate(281.884766 0.015625)"/>
      <use xlink:href="#DejaVuSans-6e" transform="translate(343.066406 0.015625)"/>
      <use xlink:href="#DejaVuSans-20" transform="translate(406.445312 0.015625)"/>
      <use xlink:href="#DejaVuSans-6f" transform="translate(438.232422 0.015625)"/>
      <use xlink:href="#DejaVuSans-66" transform="translate(499.414062 0.015625)"/>
      <use xlink:href="#DejaVuSans-20" transform="translate(534.619141 0.015625)"/>
      <use xlink:href="#DejaVuSans-6e" transform="translate(566.40625 0.015625)"/>
      <use xlink:href="#DejaVuSans-6f" transform="translate(629.785156 0.015625)"/>
      <use xlink:href="#DejaVuSans-64" transform="translate(690.966797 0.015625)"/>
      <use xlink:href="#DejaVuSans-65" transform="translate(754.443359 0.015625)"/>
      <use xlink:href="#DejaVuSans-73" transform="translate(815.966797 0.015625)"/>
      <use xlink:href="#DejaVuSans-2c" transform="translate(868.066406 0.015625)"/>
      <use xlink:href="#DejaVuSans-20" transform="translate(899.853516 0.015625)"/>
      <use xlink:href="#Cmmi10-bd" transform="translate(931.640625 0.015625)"/>
     </g>
    </g>
   </g>
   <g id="line2d_8">
    <path d="M 59.189205 17.368506 
L 59.651623 17.555487 
L 59.664607 17.742469 
L 60.32157 18.303413 
L 60.533011 18.864358 
L 60.824395 19.425302 
L 61.002158 19.425302 
L 61.108818 19.799265 
L 61.128444 19.986246 
L 61.379977 20.173228 
L 61.401798 20.547191 
L 61.669654 21.108135 
L 61.84757 21.856061 
L 62.130858 22.043042 
L 62.323364 22.790968 
L 62.628852 22.790968 
L 62.845198 23.351912 
L 63.098834 23.538894 
L 63.105113 23.912857 
L 63.394419 24.099838 
L 63.510934 24.660783 
L 63.548657 24.660783 
L 64.121218 25.034745 
L 64.235611 25.59569 
L 64.746072 26.530597 
L 64.783246 26.717579 
L 64.939055 26.717579 
L 65.082019 27.091541 
L 65.095973 27.465504 
L 65.282769 27.652486 
L 65.499074 28.774374 
L 65.592893 28.774374 
L 65.763376 29.335319 
L 65.933722 30.083245 
L 66.111327 30.644189 
L 66.19803 30.644189 
L 66.319235 31.205133 
L 66.373019 31.579096 
L 66.521911 31.579096 
L 66.65622 32.140041 
L 66.718602 32.140041 
L 66.994363 32.887966 
L 67.115495 33.261929 
L 67.750274 36.253632 
L 68.004622 36.440614 
L 68.644215 38.871373 
L 68.760233 39.058354 
L 69.003357 39.058354 
L 69.166509 39.432317 
L 69.263323 39.80628 
L 69.441804 40.180243 
L 69.999201 41.863076 
L 70.103218 41.863076 
L 70.422121 42.42402 
L 70.454108 42.611002 
L 70.805888 42.797983 
L 70.858578 42.984965 
L 70.974207 42.984965 
L 71.085278 43.545909 
L 71.171445 43.545909 
L 71.25378 43.919872 
L 71.327247 43.919872 
L 71.442061 44.293835 
L 71.521926 44.293835 
L 71.994336 45.041761 
L 72.153752 45.041761 
L 72.336368 45.602705 
L 72.435217 45.602705 
L 73.281671 48.594408 
L 73.587236 48.594408 
L 73.661328 48.968371 
L 73.739731 49.342334 
L 73.748387 49.529315 
L 74.012368 49.903278 
L 74.168914 50.651204 
L 74.215317 50.651204 
L 74.767167 51.586111 
L 75.115622 51.960074 
L 75.247357 52.334037 
L 75.48526 52.708 
L 75.57714 52.894982 
L 75.669373 52.894982 
L 75.844531 53.268944 
L 75.931871 53.642907 
L 76.257147 54.577815 
L 76.297029 54.764796 
L 76.548714 55.138759 
L 76.613179 55.699703 
L 76.864115 56.073666 
L 76.865027 56.260648 
L 77.406885 57.195555 
L 77.440986 57.382536 
L 77.578946 57.382536 
L 77.828 57.756499 
L 78.047281 57.756499 
L 78.340805 59.065369 
L 78.534688 59.626314 
L 78.814297 60.37424 
L 79.705738 60.935184 
L 79.722438 61.496128 
L 80.5457 62.431036 
L 80.851361 63.365943 
L 81.376862 64.30085 
L 81.625657 65.60972 
L 82.143823 65.60972 
L 82.303989 65.983683 
L 82.426806 65.983683 
L 82.673494 66.357646 
L 82.805812 66.357646 
L 82.930125 66.544627 
L 83.243812 66.731609 
L 84.046922 66.731609 
L 84.11486 66.91859 
L 84.285182 66.91859 
L 84.349256 67.479535 
L 84.435223 67.666516 
L 84.725908 68.040479 
L 84.732521 68.22746 
L 85.05381 68.601423 
L 85.460853 69.162368 
L 85.599759 69.162368 
L 85.806493 69.723312 
L 86.208274 69.723312 
L 86.461883 70.284256 
L 87.147742 70.284256 
L 87.283708 70.471238 
L 87.35605 70.471238 
L 87.647187 71.032182 
L 87.809874 71.032182 
L 87.98435 71.219164 
L 88.321716 71.219164 
L 88.797983 71.780108 
L 88.893367 72.154071 
L 88.998218 72.154071 
L 89.102239 72.341052 
L 89.767162 72.341052 
L 90.100923 72.901997 
L 90.158961 72.901997 
L 90.320276 73.088978 
L 90.372433 73.088978 
L 90.665937 73.836904 
L 90.864782 73.836904 
L 90.94549 74.023885 
L 91.303273 74.210867 
L 91.394866 74.397848 
L 91.553777 74.397848 
L 92.166547 75.145774 
L 92.372074 75.145774 
L 92.48054 75.706718 
L 92.661986 75.706718 
L 92.916339 76.080681 
L 93.094477 76.267663 
L 93.321973 76.267663 
L 93.700405 76.828607 
L 94.452373 76.828607 
L 94.549197 77.20257 
L 94.574907 77.389552 
L 94.701494 77.389552 
L 94.7153 77.576533 
L 96.346071 77.576533 
L 96.965919 77.763514 
L 97.053487 77.763514 
L 97.228751 78.137477 
L 98.157672 78.137477 
L 98.76436 79.072385 
L 98.79901 79.072385 
L 98.934685 79.259366 
L 99.113302 79.633329 
L 99.579382 79.633329 
L 99.598073 79.82031 
L 100.463802 79.82031 
L 100.544182 80.007292 
L 100.83166 80.007292 
L 101.111773 80.194273 
L 101.444349 80.194273 
L 101.604209 80.568236 
L 102.877294 80.942199 
L 103.00489 81.129181 
L 103.053701 81.316162 
L 103.499569 81.503143 
L 103.646084 81.503143 
L 103.799497 81.690125 
L 104.034708 81.690125 
L 104.155108 81.877106 
L 104.606303 81.877106 
L 104.693623 82.064088 
L 105.18497 82.251069 
L 105.268659 82.438051 
L 106.036895 82.812014 
L 107.915671 82.812014 
L 108.053276 82.998995 
L 108.678189 83.185976 
L 108.716817 83.185976 
L 108.721972 83.372958 
L 109.026112 83.372958 
L 109.229747 83.559939 
L 110.381503 83.933902 
L 110.431358 84.120884 
L 110.899706 84.120884 
L 111.166718 84.494847 
L 111.342285 84.681828 
L 111.553295 84.681828 
L 111.68424 85.055791 
L 113.582983 85.055791 
L 113.88505 85.616735 
L 114.245225 85.616735 
L 114.637252 85.803717 
L 114.748802 85.990698 
L 114.827873 86.17768 
L 115.197155 86.17768 
L 116.231502 86.551643 
L 116.62329 86.551643 
L 116.680455 86.738624 
L 117.909954 86.738624 
L 118.092549 87.112587 
L 119.430392 87.112587 
L 119.931333 87.299568 
L 120.291849 87.299568 
L 120.372632 87.48655 
L 120.84625 87.673531 
L 121.00634 88.047494 
L 122.319942 88.421457 
L 122.477962 88.421457 
L 122.7918 88.79542 
L 125.084471 88.79542 
L 127.567775 89.356364 
L 128.215873 89.356364 
L 128.643884 89.543346 
L 128.734018 89.917309 
L 129.251743 90.291272 
L 129.561677 90.478253 
L 130.525303 90.478253 
L 130.82273 90.665235 
L 131.916148 90.852216 
L 132.468708 90.852216 
L 132.684561 91.226179 
L 132.936872 91.41316 
L 132.949451 91.600142 
L 133.296212 91.974105 
L 135.464928 91.974105 
L 136.166018 92.161086 
L 136.911139 92.161086 
L 137.415167 92.348068 
L 138.856531 92.348068 
L 143.039175 92.535049 
L 144.254644 92.535049 
L 144.358863 92.72203 
L 145.971955 92.72203 
L 146.327837 92.909012 
L 147.289741 92.909012 
L 147.574436 93.095993 
L 148.861605 93.095993 
L 148.985741 93.282975 
L 148.999422 93.282975 
L 149.101808 93.469956 
L 149.707245 93.469956 
L 149.844334 93.656938 
L 158.753987 93.656938 
L 158.992817 93.843919 
L 163.819385 93.843919 
L 165.009926 94.217882 
L 165.806305 94.404864 
L 167.612007 94.404864 
L 169.915014 94.591845 
L 170.037494 94.778826 
L 170.307146 94.965808 
L 176.819437 94.965808 
L 176.980655 95.152789 
L 178.218654 95.152789 
L 178.456832 95.339771 
L 179.189397 95.526752 
L 179.976555 95.526752 
L 180.094724 95.900715 
L 181.647359 95.900715 
L 183.580931 96.087697 
L 191.97762 96.087697 
L 192.356079 96.274678 
L 195.030287 96.274678 
L 198.77896 96.461659 
L 198.930779 96.648641 
L 212.587236 96.648641 
L 212.773969 96.835622 
L 262.098295 96.835622 
L 262.098295 96.835622 
" clip-path="url(#p42bc3eea14)" style="fill: none; stroke: #2e8b57; stroke-width: 1.5; stroke-linecap: square"/>
   </g>
   <g id="line2d_9">
    <path d="M 59.189205 117.029619 
L 59.651623 116.842638 
L 59.664607 116.655656 
L 60.32157 116.094712 
L 60.510302 115.533767 
L 60.533011 115.720749 
L 60.604482 115.533767 
L 60.791149 115.346786 
L 60.802039 115.159804 
L 60.824395 115.346786 
L 61.002158 115.533767 
L 61.669654 114.037916 
L 61.84757 113.28999 
L 62.130858 113.103009 
L 62.186029 112.729046 
L 62.201561 112.916027 
L 62.311127 113.103009 
L 62.323364 112.916027 
L 62.628852 113.103009 
L 62.845198 112.542064 
L 63.098834 112.355083 
L 63.105113 111.98112 
L 63.394419 111.794138 
L 63.510934 111.233194 
L 63.548657 111.420175 
L 63.807094 111.233194 
L 63.916368 111.420175 
L 64.117052 111.233194 
L 64.121218 111.420175 
L 64.166597 111.046213 
L 64.41413 110.67225 
L 64.509795 110.485268 
L 64.567468 110.67225 
L 64.603895 110.485268 
L 64.761145 110.111305 
L 64.783246 110.298287 
L 64.939055 110.485268 
L 65.04323 110.298287 
L 65.071358 110.485268 
L 65.095973 109.924324 
L 65.282769 109.737342 
L 65.391365 108.989417 
L 65.473163 109.176398 
L 65.473178 108.989417 
L 65.499074 108.802435 
L 65.592893 108.989417 
L 65.612779 108.802435 
L 65.644221 108.615454 
L 65.734435 108.802435 
L 65.763376 108.615454 
L 66.111327 107.493565 
L 66.175218 107.680546 
L 66.19803 107.867528 
L 66.259606 107.680546 
L 66.357353 107.306584 
L 66.373019 107.493565 
L 66.521911 107.680546 
L 66.642334 107.306584 
L 66.718602 107.680546 
L 66.763446 107.493565 
L 66.994363 106.932621 
L 67.115495 106.558658 
L 67.5664 103.753936 
L 67.732007 103.940917 
L 67.750274 103.753936 
L 68.004622 103.566955 
L 68.501713 101.69714 
L 68.760233 101.136196 
L 69.003357 101.510159 
L 69.035737 101.323177 
L 69.258852 100.949214 
L 69.301927 100.575251 
L 69.629524 100.014307 
L 69.800804 99.453363 
L 69.806382 99.640344 
L 69.860953 99.453363 
L 69.999201 99.266381 
L 70.103218 99.640344 
L 70.422121 99.0794 
L 70.454108 98.892418 
L 70.805888 98.705437 
L 70.858578 98.518455 
L 70.974207 98.705437 
L 70.975807 98.518455 
L 71.085278 98.144493 
L 71.24296 98.331474 
L 71.338074 98.144493 
L 71.369821 98.331474 
L 71.442061 98.144493 
L 71.521926 98.331474 
L 71.625312 98.144493 
L 71.698019 98.331474 
L 71.994336 97.77053 
L 72.153752 97.957511 
L 72.320965 97.396567 
L 72.336368 97.583548 
L 72.435217 97.77053 
L 72.533068 97.396567 
L 72.573185 97.583548 
L 72.588432 97.77053 
L 72.669227 97.583548 
L 72.781533 96.648641 
L 72.859888 97.022604 
L 72.873493 97.396567 
L 72.902682 97.209585 
L 73.090759 96.461659 
L 73.281671 95.900715 
L 73.587236 96.835622 
L 73.661328 96.648641 
L 73.739731 96.274678 
L 73.748387 96.087697 
L 74.012368 95.713734 
L 74.057973 95.339771 
L 74.060613 95.526752 
L 74.144893 95.713734 
L 74.161673 95.526752 
L 74.168914 95.339771 
L 74.215317 95.526752 
L 74.317767 95.339771 
L 74.46364 95.526752 
L 74.486007 95.339771 
L 74.486868 95.526752 
L 74.722453 95.339771 
L 74.767167 95.152789 
L 74.996458 94.965808 
L 75.055021 95.152789 
L 75.388286 94.404864 
L 75.506972 94.030901 
L 75.550982 94.217882 
L 75.669373 94.591845 
L 75.844531 94.217882 
L 75.886639 93.843919 
L 75.931871 94.030901 
L 76.257147 93.095993 
L 76.297029 92.909012 
L 76.612617 92.535049 
L 76.613179 92.348068 
L 76.864115 91.974105 
L 76.865027 91.787123 
L 77.276 91.226179 
L 77.403737 91.787123 
L 77.440986 91.41316 
L 77.578946 91.600142 
L 77.828 91.226179 
L 78.028104 91.41316 
L 78.089224 91.600142 
L 78.097349 91.41316 
L 78.340805 90.665235 
L 78.626366 89.917309 
L 78.686045 90.10429 
L 78.73219 90.291272 
L 78.79224 90.10429 
L 78.814297 89.917309 
L 79.166492 89.730327 
L 79.291175 89.917309 
L 79.403667 89.730327 
L 79.632517 90.10429 
L 79.705738 90.291272 
L 79.722438 89.730327 
L 79.914719 89.543346 
L 80.005428 89.917309 
L 80.310687 89.543346 
L 80.399102 89.730327 
L 80.529229 89.543346 
L 80.5457 89.730327 
L 80.593919 89.543346 
L 80.662342 89.730327 
L 80.96889 89.169383 
L 81.070666 89.356364 
L 81.121433 89.543346 
L 81.419635 88.79542 
L 81.524051 88.047494 
L 81.714403 88.608439 
L 81.955698 88.79542 
L 82.143823 89.169383 
L 82.24034 88.79542 
L 82.240454 88.982401 
L 82.426806 89.543346 
L 82.537164 89.169383 
L 82.785751 89.543346 
L 82.805812 89.730327 
L 82.874426 89.543346 
L 82.930125 89.730327 
L 83.108909 89.543346 
L 83.110553 89.730327 
L 83.480433 90.10429 
L 83.740198 90.478253 
L 83.845757 90.852216 
L 84.046922 91.039197 
L 84.093593 90.852216 
L 84.11486 91.039197 
L 84.285182 91.226179 
L 84.349256 90.665235 
L 84.435223 90.478253 
L 84.648366 90.291272 
L 84.653278 90.478253 
L 84.732521 90.10429 
L 85.05381 89.730327 
L 85.286945 89.356364 
L 85.352791 89.730327 
L 85.460853 89.543346 
L 85.599759 89.730327 
L 85.648069 89.356364 
L 85.743564 89.543346 
L 85.806493 89.356364 
L 86.098533 89.730327 
L 86.208274 90.291272 
L 86.264104 90.10429 
L 86.375062 90.478253 
L 86.400305 90.291272 
L 86.461883 90.10429 
L 86.575123 90.291272 
L 87.095173 90.665235 
L 87.147742 90.852216 
L 87.206796 90.665235 
L 87.35605 91.226179 
L 87.426545 91.039197 
L 87.464227 90.852216 
L 87.647187 90.665235 
L 87.809874 90.852216 
L 87.931278 90.665235 
L 88.153948 91.226179 
L 88.306779 91.600142 
L 88.321716 91.787123 
L 88.806892 91.226179 
L 88.832627 91.039197 
L 88.893367 91.226179 
L 89.179175 91.974105 
L 89.670304 92.348068 
L 89.767162 92.535049 
L 89.853031 92.161086 
L 89.97635 92.348068 
L 90.100923 92.161086 
L 90.158961 92.348068 
L 90.222078 92.161086 
L 90.372433 92.535049 
L 90.439137 92.348068 
L 90.532436 92.161086 
L 90.665937 91.974105 
L 90.94549 92.348068 
L 91.303273 92.161086 
L 91.394866 91.974105 
L 91.553777 92.161086 
L 91.708154 91.974105 
L 91.708803 92.161086 
L 91.937903 91.787123 
L 91.947127 91.974105 
L 92.003933 92.348068 
L 92.372074 92.909012 
L 92.379483 92.72203 
L 92.48054 92.348068 
L 92.661986 92.535049 
L 92.916339 92.161086 
L 93.094477 91.974105 
L 93.414639 92.348068 
L 93.532299 91.974105 
L 93.700405 92.161086 
L 94.07021 92.348068 
L 94.452373 93.095993 
L 94.549197 92.72203 
L 94.574907 92.535049 
L 94.701494 92.72203 
L 94.7153 92.535049 
L 95.469249 93.843919 
L 95.538177 94.217882 
L 96.346071 94.591845 
L 96.738447 94.404864 
L 97.053487 94.965808 
L 97.102347 94.591845 
L 97.493407 95.339771 
L 97.590822 95.526752 
L 97.977508 95.713734 
L 98.157672 96.087697 
L 98.406139 95.526752 
L 98.408379 95.713734 
L 98.468581 96.087697 
L 98.568751 95.900715 
L 98.613869 96.087697 
L 98.76436 95.900715 
L 98.79901 96.087697 
L 98.858523 95.900715 
L 98.934685 96.087697 
L 99.037439 95.900715 
L 99.03877 96.087697 
L 99.078298 96.274678 
L 99.113302 96.087697 
L 99.574395 96.648641 
L 99.579382 96.835622 
L 99.598073 96.648641 
L 99.904379 97.022604 
L 100.11657 97.583548 
L 100.371955 97.77053 
L 100.463802 98.144493 
L 100.544182 97.957511 
L 100.83166 98.144493 
L 101.111773 97.957511 
L 101.422 98.331474 
L 101.444349 98.705437 
L 101.519053 98.331474 
L 101.604209 98.705437 
L 102.484816 98.518455 
L 102.676968 98.892418 
L 102.806457 99.0794 
L 102.908567 98.705437 
L 102.969129 98.892418 
L 103.00489 99.0794 
L 103.053701 98.892418 
L 103.337356 98.705437 
L 103.646084 99.0794 
L 103.700833 98.892418 
L 104.034708 99.640344 
L 104.155108 99.453363 
L 104.606303 99.827326 
L 104.693623 99.640344 
L 105.18497 99.453363 
L 105.261474 99.266381 
L 105.268659 99.453363 
L 105.733785 99.0794 
L 105.754646 99.266381 
L 106.036895 99.640344 
L 106.458557 100.014307 
L 107.343121 100.201288 
L 107.489499 100.575251 
L 107.830826 100.762233 
L 107.915671 100.949214 
L 108.01503 100.762233 
L 108.053276 100.949214 
L 108.444726 100.762233 
L 108.451031 100.949214 
L 108.678189 101.136196 
L 108.716817 101.323177 
L 108.721972 101.136196 
L 109.026112 101.323177 
L 109.163151 101.136196 
L 109.229747 101.323177 
L 109.798468 101.136196 
L 109.925892 101.510159 
L 109.959364 101.69714 
L 110.377461 101.510159 
L 110.431358 101.69714 
L 110.899706 101.884122 
L 111.024354 101.510159 
L 111.166718 101.69714 
L 111.336743 101.510159 
L 111.342285 101.69714 
L 111.553295 101.884122 
L 111.68424 101.510159 
L 112.129795 102.445066 
L 112.397616 102.632047 
L 112.415386 102.819029 
L 113.00001 103.379973 
L 113.582983 103.566955 
L 113.88505 103.00601 
L 114.245225 103.192992 
L 114.637252 103.00601 
L 114.645441 102.819029 
L 114.748802 103.00601 
L 114.780101 102.819029 
L 114.827873 103.00601 
L 115.197155 103.192992 
L 115.594739 103.00601 
L 115.707447 103.192992 
L 116.058943 103.00601 
L 116.310752 103.379973 
L 116.351448 103.753936 
L 116.591445 103.940917 
L 116.62329 104.31488 
L 116.680455 104.127899 
L 117.662873 104.501862 
L 117.708844 104.688843 
L 117.909954 104.875825 
L 118.092549 104.501862 
L 118.212118 104.875825 
L 118.893762 105.249788 
L 119.01493 105.623751 
L 119.430392 105.810732 
L 119.931333 105.623751 
L 120.291849 105.810732 
L 120.372632 105.623751 
L 120.84625 105.436769 
L 120.96799 105.249788 
L 120.984305 105.436769 
L 121.00634 105.249788 
L 121.513897 105.062806 
L 121.63083 105.249788 
L 122.151241 105.062806 
L 122.381662 105.436769 
L 122.477962 105.623751 
L 122.7918 105.249788 
L 123.665713 105.623751 
L 123.76224 105.810732 
L 124.182061 105.997713 
L 124.528951 106.558658 
L 124.694302 106.932621 
L 124.847429 107.306584 
L 125.084471 107.493565 
L 126.669973 107.119602 
L 126.708878 107.493565 
L 126.910859 107.680546 
L 127.545889 107.493565 
L 127.567775 107.680546 
L 128.215873 107.867528 
L 128.643884 107.680546 
L 128.734018 107.306584 
L 129.251743 106.932621 
L 129.450687 106.745639 
L 129.820313 107.306584 
L 130.201793 107.493565 
L 130.301556 108.054509 
L 130.514137 108.241491 
L 130.525303 108.428472 
L 130.714847 108.241491 
L 130.82273 108.802435 
L 131.693267 108.615454 
L 131.695652 108.802435 
L 131.916148 108.989417 
L 132.38316 109.176398 
L 132.468708 109.36338 
L 132.530737 109.176398 
L 132.535987 109.36338 
L 132.92644 108.989417 
L 132.936872 109.176398 
L 132.949451 108.989417 
L 133.296212 108.615454 
L 135.464928 109.550361 
L 136.166018 109.36338 
L 136.911139 109.550361 
L 137.348506 109.36338 
L 137.415167 109.550361 
L 138.042217 109.924324 
L 138.138856 110.111305 
L 138.856531 110.298287 
L 141.585822 110.111305 
L 143.021955 110.485268 
L 143.039175 110.67225 
L 144.055861 111.046213 
L 144.254644 111.233194 
L 144.358863 111.046213 
L 145.592613 111.233194 
L 145.971955 111.420175 
L 146.327837 111.233194 
L 147.289741 111.794138 
L 147.574436 111.607157 
L 148.715093 111.794138 
L 148.861605 111.98112 
L 148.875615 111.794138 
L 148.999422 112.168101 
L 149.101808 111.98112 
L 149.628186 112.168101 
L 149.707245 112.542064 
L 149.843838 112.355083 
L 149.844006 112.542064 
L 149.844334 112.729046 
L 150.344877 113.28999 
L 150.944806 113.476971 
L 153.193254 113.850934 
L 153.431334 114.224897 
L 153.5174 114.411879 
L 155.562382 114.59886 
L 156.291703 114.785842 
L 156.533132 115.159804 
L 158.753987 115.90773 
L 158.992817 115.720749 
L 159.297271 115.90773 
L 160.799404 116.094712 
L 163.096719 116.842638 
L 163.819385 117.029619 
L 164.8308 116.655656 
L 165.009926 116.842638 
L 165.806305 116.655656 
L 167.612007 116.842638 
L 169.915014 116.655656 
L 170.037494 116.468675 
L 170.307146 116.281693 
L 170.859707 116.842638 
L 170.872971 117.029619 
L 171.529323 117.2166 
L 173.810171 117.590563 
L 174.033323 117.964526 
L 176.022159 118.151508 
L 176.079615 118.338489 
L 176.819437 118.525471 
L 176.980655 118.338489 
L 178.218654 118.525471 
L 178.456832 118.338489 
L 179.09676 118.151508 
L 179.189397 118.338489 
L 179.889693 118.525471 
L 179.976555 118.712452 
L 179.993221 118.525471 
L 180.094724 118.338489 
L 180.267521 118.525471 
L 181.647359 118.712452 
L 183.042608 118.525471 
L 184.344912 118.899433 
L 185.793606 119.086415 
L 185.862949 119.273396 
L 186.528787 119.647359 
L 187.312553 119.834341 
L 191.382944 120.021322 
L 191.97762 120.208304 
L 192.356079 120.021322 
L 195.030287 120.582267 
L 198.77896 120.395285 
L 198.930779 120.208304 
L 199.21119 120.395285 
L 199.720828 120.582267 
L 199.774616 120.769248 
L 202.560312 120.956229 
L 212.587236 121.143211 
L 212.773969 120.956229 
L 214.171076 121.517174 
L 215.733347 121.704155 
L 223.666291 122.078118 
L 240.35211 122.2651 
L 242.177489 122.452081 
L 262.098295 122.639062 
L 262.098295 122.639062 
" clip-path="url(#p42bc3eea14)" style="fill: none; stroke: #fa8072; stroke-width: 1.5; stroke-linecap: square"/>
   </g>
   <g id="line2d_10">
    <path d="M 59.189205 122.639062 
L 60.510302 122.639062 
L 60.604482 122.452081 
L 60.802039 122.452081 
L 60.824395 122.2651 
L 61.128444 121.891137 
L 62.186029 121.891137 
L 62.323364 121.330192 
L 62.754233 121.143211 
L 63.510934 121.143211 
L 63.548657 120.956229 
L 63.807094 120.956229 
L 63.916368 120.769248 
L 64.117052 120.769248 
L 64.166597 120.582267 
L 64.349429 120.582267 
L 64.41413 120.395285 
L 64.509795 120.395285 
L 64.603895 120.208304 
L 64.761145 120.208304 
L 64.783246 120.021322 
L 65.095973 119.647359 
L 65.391365 119.647359 
L 65.734435 119.086415 
L 65.86607 119.086415 
L 65.965818 118.899433 
L 66.111327 118.899433 
L 66.763446 117.2166 
L 67.5664 117.2166 
L 67.750274 117.029619 
L 68.401723 117.029619 
L 68.501713 116.842638 
L 68.760233 116.842638 
L 69.166509 116.468675 
L 69.687524 116.468675 
L 69.800804 116.281693 
L 69.860953 116.094712 
L 69.944377 116.094712 
L 70.103218 115.533767 
L 70.858578 115.533767 
L 71.698019 114.224897 
L 71.994336 114.224897 
L 72.206304 114.037916 
L 72.320965 114.037916 
L 72.435217 113.663953 
L 72.533068 113.663953 
L 72.710663 113.28999 
L 72.781533 113.28999 
L 72.859888 112.916027 
L 72.902682 112.542064 
L 73.281671 112.542064 
L 73.602374 111.607157 
L 73.748387 111.420175 
L 74.057973 111.420175 
L 74.168914 111.046213 
L 74.374775 110.67225 
L 74.419187 110.67225 
L 74.486868 110.298287 
L 74.996458 110.298287 
L 75.137551 110.111305 
L 75.506972 110.111305 
L 75.669373 109.550361 
L 75.886639 109.550361 
L 76.018197 109.36338 
L 76.49755 109.36338 
L 76.613179 108.989417 
L 77.061342 108.989417 
L 77.130109 108.802435 
L 77.276 108.802435 
L 77.578946 108.054509 
L 77.828 108.054509 
L 78.028104 107.867528 
L 78.13137 107.493565 
L 78.232265 107.493565 
L 78.340805 107.306584 
L 78.50272 107.306584 
L 78.626366 107.119602 
L 78.814297 106.745639 
L 79.166492 106.745639 
L 80.162009 105.436769 
L 80.310687 105.436769 
L 80.851361 104.31488 
L 80.96889 104.31488 
L 81.121433 103.753936 
L 81.365987 103.753936 
L 81.478737 103.566955 
L 81.524051 103.566955 
L 81.714403 102.819029 
L 81.955698 102.632047 
L 82.143823 102.258084 
L 82.24034 102.258084 
L 82.303989 101.884122 
L 82.930125 100.762233 
L 83.108909 100.762233 
L 83.110553 100.575251 
L 83.480433 100.201288 
L 83.740198 99.827326 
L 83.845757 99.453363 
L 84.11486 99.0794 
L 84.435223 98.892418 
L 84.648366 98.892418 
L 84.732521 98.705437 
L 85.286945 98.705437 
L 85.460853 98.331474 
L 85.806493 97.957511 
L 86.098533 97.583548 
L 86.208274 97.022604 
L 86.264104 97.022604 
L 86.575123 96.461659 
L 87.095173 96.087697 
L 87.35605 95.339771 
L 87.647187 95.339771 
L 88.153948 94.591845 
L 88.306779 94.217882 
L 88.321716 94.030901 
L 88.635394 94.030901 
L 88.640571 93.843919 
L 88.832627 93.843919 
L 89.179175 92.72203 
L 89.670304 92.348068 
L 89.97635 91.974105 
L 90.100923 91.974105 
L 90.372433 91.41316 
L 90.452769 91.41316 
L 90.532436 91.226179 
L 90.665937 91.226179 
L 90.884204 90.852216 
L 90.94549 90.665235 
L 91.394866 90.665235 
L 91.553777 90.478253 
L 91.708154 90.478253 
L 91.708803 90.291272 
L 91.937903 90.291272 
L 92.003933 89.730327 
L 92.745064 88.79542 
L 93.094477 88.79542 
L 93.411648 88.421457 
L 93.433264 88.234476 
L 93.532299 88.234476 
L 93.700405 88.047494 
L 94.07021 87.860513 
L 94.53441 87.112587 
L 94.574907 87.112587 
L 95.469249 85.616735 
L 95.538177 85.242772 
L 96.851285 84.681828 
L 97.590822 83.372958 
L 97.977508 83.185976 
L 98.302778 82.812014 
L 98.406139 82.812014 
L 98.468581 82.251069 
L 98.568751 82.251069 
L 98.613869 82.064088 
L 98.76436 82.064088 
L 98.934685 81.690125 
L 99.037439 81.690125 
L 99.113302 81.316162 
L 99.574395 80.755218 
L 99.598073 80.568236 
L 99.904379 80.194273 
L 100.11657 79.633329 
L 100.371955 79.446347 
L 100.544182 79.072385 
L 100.83166 78.885403 
L 101.111773 78.885403 
L 101.422 78.51144 
L 101.519053 78.137477 
L 101.604209 77.763514 
L 102.484816 77.763514 
L 102.676968 77.389552 
L 103.053701 76.828607 
L 103.337356 76.828607 
L 103.927596 76.080681 
L 104.034708 75.706718 
L 104.155108 75.706718 
L 104.693623 75.332756 
L 105.261474 75.332756 
L 105.268659 75.145774 
L 105.733785 75.145774 
L 105.861477 74.771811 
L 106.458557 74.210867 
L 107.343121 74.023885 
L 107.489499 73.649923 
L 107.830826 73.462941 
L 108.053276 73.088978 
L 108.444726 73.088978 
L 108.451031 72.901997 
L 108.678189 72.715015 
L 108.721972 72.528034 
L 109.229747 72.154071 
L 109.798468 72.154071 
L 109.925892 71.780108 
L 109.959364 71.593127 
L 110.377461 71.593127 
L 110.431358 71.219164 
L 111.336743 70.845201 
L 111.342285 70.658219 
L 111.759201 70.284256 
L 111.921672 69.723312 
L 112.415386 69.162368 
L 113.00001 68.601423 
L 114.245225 68.22746 
L 114.645441 68.22746 
L 114.827873 67.853498 
L 115.197155 67.666516 
L 115.594739 67.666516 
L 115.707447 67.479535 
L 116.058943 67.479535 
L 116.310752 67.105572 
L 116.351448 66.731609 
L 116.591445 66.544627 
L 116.680455 66.170665 
L 117.662873 65.796702 
L 117.708844 65.60972 
L 117.959689 65.422739 
L 118.092549 65.422739 
L 118.212118 65.048776 
L 118.893762 64.674813 
L 119.01493 64.30085 
L 119.430392 64.113869 
L 119.931333 64.113869 
L 120.372632 63.926887 
L 120.96799 63.926887 
L 121.00634 63.739906 
L 121.513897 63.739906 
L 121.63083 63.552924 
L 122.151241 63.552924 
L 122.381662 63.178961 
L 122.477962 62.99198 
L 122.7918 62.99198 
L 123.665713 62.618017 
L 123.76224 62.431036 
L 124.182061 62.244054 
L 124.528951 61.68311 
L 124.694302 61.309147 
L 124.847429 60.935184 
L 125.084471 60.748202 
L 126.669973 60.748202 
L 126.708878 60.37424 
L 126.910859 60.187258 
L 127.545889 60.187258 
L 127.567775 60.000277 
L 128.215873 59.813295 
L 129.450687 59.813295 
L 129.820313 59.252351 
L 130.201793 59.065369 
L 130.301556 58.504425 
L 130.514137 58.317444 
L 130.525303 58.130462 
L 130.714847 58.130462 
L 130.82273 57.569518 
L 131.693267 57.569518 
L 131.695652 57.382536 
L 131.916148 57.195555 
L 132.38316 57.008573 
L 132.535987 56.634611 
L 132.92644 56.634611 
L 132.949451 56.447629 
L 133.296212 56.447629 
L 135.464928 55.512722 
L 136.166018 55.512722 
L 137.415167 55.138759 
L 138.042217 54.764796 
L 138.138856 54.577815 
L 138.856531 54.390833 
L 141.585822 54.390833 
L 143.021955 54.01687 
L 143.039175 53.829889 
L 144.055861 53.455926 
L 144.358863 53.268944 
L 145.592613 53.081963 
L 145.971955 52.894982 
L 146.327837 52.894982 
L 147.289741 52.334037 
L 147.574436 52.334037 
L 148.715093 52.147056 
L 148.985741 51.773093 
L 149.101808 51.586111 
L 149.628186 51.39913 
L 149.707245 51.025167 
L 149.843838 51.025167 
L 149.844334 50.651204 
L 150.344877 50.09026 
L 150.944806 49.903278 
L 153.193254 49.529315 
L 153.431334 49.155353 
L 153.5174 48.968371 
L 155.562382 48.78139 
L 156.291703 48.594408 
L 156.533132 48.220445 
L 159.297271 47.285538 
L 160.799404 47.098557 
L 163.096719 46.350631 
L 163.819385 46.163649 
L 164.8308 46.163649 
L 165.009926 45.976668 
L 165.806305 45.976668 
L 167.612007 45.789686 
L 170.307146 45.789686 
L 170.859707 45.228742 
L 170.872971 45.041761 
L 171.529323 44.854779 
L 173.810171 44.480816 
L 174.033323 44.106853 
L 176.022159 43.919872 
L 176.079615 43.73289 
L 176.980655 43.545909 
L 178.456832 43.358928 
L 179.09676 43.358928 
L 179.189397 43.171946 
L 179.889693 42.984965 
L 180.094724 42.797983 
L 180.267521 42.611002 
L 181.647359 42.42402 
L 183.042608 42.42402 
L 184.344912 42.050057 
L 185.793606 41.863076 
L 185.862949 41.676095 
L 186.528787 41.302132 
L 187.312553 41.11515 
L 191.382944 40.928169 
L 191.97762 40.741187 
L 192.356079 40.741187 
L 195.030287 40.180243 
L 198.930779 40.180243 
L 199.21119 39.993261 
L 199.720828 39.80628 
L 199.774616 39.619299 
L 202.560312 39.432317 
L 212.773969 39.245336 
L 214.171076 38.684391 
L 215.733347 38.49741 
L 223.666291 38.123447 
L 240.35211 37.936466 
L 242.177489 37.749484 
L 262.098295 37.562503 
L 262.098295 37.562503 
" clip-path="url(#p42bc3eea14)" style="fill: none; stroke: #4682b4; stroke-width: 1.5; stroke-linecap: square"/>
   </g>
   <g id="patch_3">
    <path d="M 49.04375 122.639062 
L 49.04375 11.759062 
" style="fill: none; stroke: #000000; stroke-width: 0.8; stroke-linejoin: miter; stroke-linecap: square"/>
   </g>
   <g id="patch_4">
    <path d="M 49.04375 122.639062 
L 272.24375 122.639062 
" style="fill: none; stroke: #000000; stroke-width: 0.8; stroke-linejoin: miter; stroke-linecap: square"/>
   </g>
   <g id="legend_1">
    <g id="patch_5">
     <path d="M 184.72375 86.021563 
L 266.64375 86.021563 
Q 268.24375 86.021563 268.24375 84.421563 
L 268.24375 49.976562 
Q 268.24375 48.376563 266.64375 48.376563 
L 184.72375 48.376563 
Q 183.12375 48.376563 183.12375 49.976562 
L 183.12375 84.421563 
Q 183.12375 86.021563 184.72375 86.021563 
z
" style="fill: #ffffff; opacity: 0.8; stroke: #cccccc; stroke-linejoin: miter"/>
    </g>
    <g id="line2d_11">
     <path d="M 186.32375 54.856563 
L 194.32375 54.856563 
L 202.32375 54.856563 
" style="fill: none; stroke: #2e8b57; stroke-width: 1.5; stroke-linecap: square"/>
    </g>
    <g id="text_10">
     <!-- Susceptible, $S$ -->
     <g transform="translate(208.72375 57.656563) scale(0.08 -0.08)">
      <defs>
       <path id="DejaVuSans-53" d="M 3425 4513 
L 3425 3897 
Q 3066 4069 2747 4153 
Q 2428 4238 2131 4238 
Q 1616 4238 1336 4038 
Q 1056 3838 1056 3469 
Q 1056 3159 1242 3001 
Q 1428 2844 1947 2747 
L 2328 2669 
Q 3034 2534 3370 2195 
Q 3706 1856 3706 1288 
Q 3706 609 3251 259 
Q 2797 -91 1919 -91 
Q 1588 -91 1214 -16 
Q 841 59 441 206 
L 441 856 
Q 825 641 1194 531 
Q 1563 422 1919 422 
Q 2459 422 2753 634 
Q 3047 847 3047 1241 
Q 3047 1584 2836 1778 
Q 2625 1972 2144 2069 
L 1759 2144 
Q 1053 2284 737 2584 
Q 422 2884 422 3419 
Q 422 4038 858 4394 
Q 1294 4750 2059 4750 
Q 2388 4750 2728 4690 
Q 3069 4631 3425 4513 
z
" transform="scale(0.015625)"/>
       <path id="DejaVuSans-75" d="M 544 1381 
L 544 3500 
L 1119 3500 
L 1119 1403 
Q 1119 906 1312 657 
Q 1506 409 1894 409 
Q 2359 409 2629 706 
Q 2900 1003 2900 1516 
L 2900 3500 
L 3475 3500 
L 3475 0 
L 2900 0 
L 2900 538 
Q 2691 219 2414 64 
Q 2138 -91 1772 -91 
Q 1169 -91 856 284 
Q 544 659 544 1381 
z
M 1991 3584 
L 1991 3584 
z
" transform="scale(0.015625)"/>
       <path id="DejaVuSans-70" d="M 1159 525 
L 1159 -1331 
L 581 -1331 
L 581 3500 
L 1159 3500 
L 1159 2969 
Q 1341 3281 1617 3432 
Q 1894 3584 2278 3584 
Q 2916 3584 3314 3078 
Q 3713 2572 3713 1747 
Q 3713 922 3314 415 
Q 2916 -91 2278 -91 
Q 1894 -91 1617 61 
Q 1341 213 1159 525 
z
M 3116 1747 
Q 3116 2381 2855 2742 
Q 2594 3103 2138 3103 
Q 1681 3103 1420 2742 
Q 1159 2381 1159 1747 
Q 1159 1113 1420 752 
Q 1681 391 2138 391 
Q 2594 391 2855 752 
Q 3116 1113 3116 1747 
z
" transform="scale(0.015625)"/>
       <path id="DejaVuSans-62" d="M 3116 1747 
Q 3116 2381 2855 2742 
Q 2594 3103 2138 3103 
Q 1681 3103 1420 2742 
Q 1159 2381 1159 1747 
Q 1159 1113 1420 752 
Q 1681 391 2138 391 
Q 2594 391 2855 752 
Q 3116 1113 3116 1747 
z
M 1159 2969 
Q 1341 3281 1617 3432 
Q 1894 3584 2278 3584 
Q 2916 3584 3314 3078 
Q 3713 2572 3713 1747 
Q 3713 922 3314 415 
Q 2916 -91 2278 -91 
Q 1894 -91 1617 61 
Q 1341 213 1159 525 
L 1159 0 
L 581 0 
L 581 4863 
L 1159 4863 
L 1159 2969 
z
" transform="scale(0.015625)"/>
       <path id="DejaVuSans-6c" d="M 603 4863 
L 1178 4863 
L 1178 0 
L 603 0 
L 603 4863 
z
" transform="scale(0.015625)"/>
       <path id="Cmmi10-53" d="M 391 -141 
Q 372 -141 356 -119 
Q 341 -97 341 -78 
L 709 1416 
Q 722 1453 763 1453 
L 838 1453 
Q 863 1453 877 1434 
Q 891 1416 891 1388 
Q 838 1169 838 997 
Q 838 534 1156 309 
Q 1475 84 1959 84 
Q 2169 84 2372 187 
Q 2575 291 2726 456 
Q 2878 622 2968 826 
Q 3059 1031 3059 1241 
Q 3059 1466 2940 1642 
Q 2822 1819 2613 1869 
L 1831 2075 
Q 1516 2159 1328 2414 
Q 1141 2669 1141 2988 
Q 1141 3372 1369 3728 
Q 1597 4084 1964 4298 
Q 2331 4513 2713 4513 
Q 3006 4513 3251 4405 
Q 3497 4297 3628 4063 
L 3994 4494 
Q 4031 4513 4038 4513 
L 4078 4513 
Q 4103 4513 4118 4491 
Q 4134 4469 4134 4447 
L 3763 2963 
Q 3753 2919 3713 2919 
L 3634 2919 
Q 3578 2919 3578 2988 
Q 3609 3191 3609 3341 
Q 3609 3638 3507 3858 
Q 3406 4078 3201 4192 
Q 2997 4306 2694 4306 
Q 2438 4306 2184 4159 
Q 1931 4013 1775 3769 
Q 1619 3525 1619 3263 
Q 1619 3056 1739 2897 
Q 1859 2738 2059 2681 
L 2841 2478 
Q 3053 2422 3211 2280 
Q 3369 2138 3450 1942 
Q 3531 1747 3531 1516 
Q 3531 1213 3403 917 
Q 3275 622 3045 378 
Q 2816 134 2525 -3 
Q 2234 -141 1931 -141 
Q 1169 -141 838 306 
L 481 -122 
Q 444 -141 434 -141 
L 391 -141 
z
" transform="scale(0.015625)"/>
      </defs>
      <use xlink:href="#DejaVuSans-53" transform="translate(0 0.015625)"/>
      <use xlink:href="#DejaVuSans-75" transform="translate(63.476562 0.015625)"/>
      <use xlink:href="#DejaVuSans-73" transform="translate(126.855469 0.015625)"/>
      <use xlink:href="#DejaVuSans-63" transform="translate(178.955078 0.015625)"/>
      <use xlink:href="#DejaVuSans-65" transform="translate(233.935547 0.015625)"/>
      <use xlink:href="#DejaVuSans-70" transform="translate(295.458984 0.015625)"/>
      <use xlink:href="#DejaVuSans-74" transform="translate(358.935547 0.015625)"/>
      <use xlink:href="#DejaVuSans-69" transform="translate(398.144531 0.015625)"/>
      <use xlink:href="#DejaVuSans-62" transform="translate(425.927734 0.015625)"/>
      <use xlink:href="#DejaVuSans-6c" transform="translate(489.404297 0.015625)"/>
      <use xlink:href="#DejaVuSans-65" transform="translate(517.1875 0.015625)"/>
      <use xlink:href="#DejaVuSans-2c" transform="translate(578.710938 0.015625)"/>
      <use xlink:href="#DejaVuSans-20" transform="translate(610.498047 0.015625)"/>
      <use xlink:href="#Cmmi10-53" transform="translate(642.285156 0.015625)"/>
     </g>
    </g>
    <g id="line2d_12">
     <path d="M 186.32375 66.615313 
L 194.32375 66.615313 
L 202.32375 66.615313 
" style="fill: none; stroke: #fa8072; stroke-width: 1.5; stroke-linecap: square"/>
    </g>
    <g id="text_11">
     <!-- Infected, $I$ -->
     <g transform="translate(208.72375 69.415313) scale(0.08 -0.08)">
      <defs>
       <path id="DejaVuSans-49" d="M 628 4666 
L 1259 4666 
L 1259 0 
L 628 0 
L 628 4666 
z
" transform="scale(0.015625)"/>
       <path id="Cmmi10-49" d="M 269 0 
Q 206 0 206 84 
Q 231 225 288 225 
Q 666 225 800 250 
Q 947 284 984 441 
L 1863 3956 
Q 1875 4019 1875 4038 
Q 1875 4078 1854 4095 
Q 1834 4113 1791 4122 
Q 1663 4147 1306 4147 
Q 1241 4147 1241 4231 
Q 1263 4313 1275 4342 
Q 1288 4372 1350 4372 
L 3138 4372 
Q 3200 4372 3200 4288 
Q 3197 4272 3187 4234 
Q 3178 4197 3162 4172 
Q 3147 4147 3116 4147 
Q 2741 4147 2597 4122 
Q 2456 4088 2419 3928 
L 1544 416 
Q 1528 338 1528 331 
Q 1528 316 1533 302 
Q 1538 288 1552 277 
Q 1566 266 1580 261 
Q 1594 256 1613 250 
Q 1734 225 2100 225 
Q 2163 225 2163 141 
Q 2141 50 2128 25 
Q 2116 0 2053 0 
L 269 0 
z
" transform="scale(0.015625)"/>
      </defs>
      <use xlink:href="#DejaVuSans-49" transform="translate(0 0.015625)"/>
      <use xlink:href="#DejaVuSans-6e" transform="translate(29.492188 0.015625)"/>
      <use xlink:href="#DejaVuSans-66" transform="translate(92.871094 0.015625)"/>
      <use xlink:href="#DejaVuSans-65" transform="translate(128.076172 0.015625)"/>
      <use xlink:href="#DejaVuSans-63" transform="translate(189.599609 0.015625)"/>
      <use xlink:href="#DejaVuSans-74" transform="translate(244.580078 0.015625)"/>
      <use xlink:href="#DejaVuSans-65" transform="translate(283.789062 0.015625)"/>
      <use xlink:href="#DejaVuSans-64" transform="translate(345.3125 0.015625)"/>
      <use xlink:href="#DejaVuSans-2c" transform="translate(408.789062 0.015625)"/>
      <use xlink:href="#DejaVuSans-20" transform="translate(440.576172 0.015625)"/>
      <use xlink:href="#Cmmi10-49" transform="translate(472.363281 0.015625)"/>
     </g>
    </g>
    <g id="line2d_13">
     <path d="M 186.32375 78.357813 
L 194.32375 78.357813 
L 202.32375 78.357813 
" style="fill: none; stroke: #4682b4; stroke-width: 1.5; stroke-linecap: square"/>
    </g>
    <g id="text_12">
     <!-- Recovered, $R$ -->
     <g transform="translate(208.72375 81.157813) scale(0.08 -0.08)">
      <defs>
       <path id="DejaVuSans-52" d="M 2841 2188 
Q 3044 2119 3236 1894 
Q 3428 1669 3622 1275 
L 4263 0 
L 3584 0 
L 2988 1197 
Q 2756 1666 2539 1819 
Q 2322 1972 1947 1972 
L 1259 1972 
L 1259 0 
L 628 0 
L 628 4666 
L 2053 4666 
Q 2853 4666 3247 4331 
Q 3641 3997 3641 3322 
Q 3641 2881 3436 2590 
Q 3231 2300 2841 2188 
z
M 1259 4147 
L 1259 2491 
L 2053 2491 
Q 2509 2491 2742 2702 
Q 2975 2913 2975 3322 
Q 2975 3731 2742 3939 
Q 2509 4147 2053 4147 
L 1259 4147 
z
" transform="scale(0.015625)"/>
       <path id="DejaVuSans-76" d="M 191 3500 
L 800 3500 
L 1894 563 
L 2988 3500 
L 3597 3500 
L 2284 0 
L 1503 0 
L 191 3500 
z
" transform="scale(0.015625)"/>
       <path id="Cmmi10-52" d="M 313 0 
Q 250 0 250 84 
Q 253 100 262 139 
Q 272 178 289 201 
Q 306 225 331 225 
Q 722 225 878 269 
Q 959 297 997 441 
L 1875 3956 
Q 1888 4019 1888 4044 
Q 1888 4113 1813 4122 
Q 1691 4147 1350 4147 
Q 1288 4147 1288 4231 
Q 1291 4247 1300 4286 
Q 1309 4325 1326 4348 
Q 1344 4372 1369 4372 
L 3309 4372 
Q 3541 4372 3791 4319 
Q 4041 4266 4250 4152 
Q 4459 4038 4593 3848 
Q 4728 3659 4728 3406 
Q 4728 3084 4515 2831 
Q 4303 2578 3978 2408 
Q 3653 2238 3347 2169 
Q 3597 2078 3756 1879 
Q 3916 1681 3916 1422 
Q 3916 1388 3914 1370 
Q 3913 1353 3909 1331 
L 3859 763 
Q 3853 638 3847 550 
Q 3841 463 3841 409 
Q 3841 234 3892 129 
Q 3944 25 4097 25 
Q 4297 25 4448 211 
Q 4600 397 4647 616 
Q 4675 672 4709 672 
L 4769 672 
Q 4831 672 4831 588 
Q 4784 403 4682 237 
Q 4581 72 4426 -34 
Q 4272 -141 4091 -141 
Q 3716 -141 3452 26 
Q 3188 194 3188 550 
Q 3188 684 3213 788 
L 3353 1356 
Q 3378 1434 3378 1538 
Q 3378 1803 3198 1954 
Q 3019 2106 2747 2106 
L 1959 2106 
L 1538 416 
Q 1522 363 1522 325 
Q 1522 259 1600 250 
Q 1722 225 2059 225 
Q 2125 225 2125 141 
Q 2103 50 2090 25 
Q 2078 0 2016 0 
L 313 0 
z
M 1997 2272 
L 2706 2272 
Q 3403 2272 3756 2625 
Q 3919 2788 4014 3039 
Q 4109 3291 4109 3541 
Q 4109 3778 3970 3912 
Q 3831 4047 3626 4097 
Q 3422 4147 3175 4147 
L 2747 4147 
Q 2572 4147 2515 4117 
Q 2459 4088 2413 3928 
L 1997 2272 
z
" transform="scale(0.015625)"/>
      </defs>
      <use xlink:href="#DejaVuSans-52" transform="translate(0 0.015625)"/>
      <use xlink:href="#DejaVuSans-65" transform="translate(69.482422 0.015625)"/>
      <use xlink:href="#DejaVuSans-63" transform="translate(131.005859 0.015625)"/>
      <use xlink:href="#DejaVuSans-6f" transform="translate(185.986328 0.015625)"/>
      <use xlink:href="#DejaVuSans-76" transform="translate(247.167969 0.015625)"/>
      <use xlink:href="#DejaVuSans-65" transform="translate(306.347656 0.015625)"/>
      <use xlink:href="#DejaVuSans-72" transform="translate(367.871094 0.015625)"/>
      <use xlink:href="#DejaVuSans-65" transform="translate(408.984375 0.015625)"/>
      <use xlink:href="#DejaVuSans-64" transform="translate(470.507812 0.015625)"/>
      <use xlink:href="#DejaVuSans-2c" transform="translate(533.984375 0.015625)"/>
      <use xlink:href="#DejaVuSans-20" transform="translate(565.771484 0.015625)"/>
      <use xlink:href="#Cmmi10-52" transform="translate(597.558594 0.015625)"/>
     </g>
    </g>
   </g>
  </g>
 </g>
 <defs>
  <clipPath id="p42bc3eea14">
   <rect x="49.04375" y="11.759062" width="223.2" height="110.88"/>
  </clipPath>
 </defs>
</svg>
