<?xml version="1.0" encoding="utf-8" standalone="no"?>
<!DOCTYPE svg PUBLIC "-//W3C//DTD SVG 1.1//EN"
  "http://www.w3.org/Graphics/SVG/1.1/DTD/svg11.dtd">
<svg xmlns:xlink="http://www.w3.org/1999/xlink" width="263.68375pt" height="143.89375pt" viewBox="0 0 263.68375 143.89375" xmlns="http://www.w3.org/2000/svg" version="1.1">
 <metadata>
  <rdf:RDF xmlns:dc="http://purl.org/dc/elements/1.1/" xmlns:cc="http://creativecommons.org/ns#" xmlns:rdf="http://www.w3.org/1999/02/22-rdf-syntax-ns#">
   <cc:Work>
    <dc:type rdf:resource="http://purl.org/dc/dcmitype/StillImage"/>
    <dc:date>2025-07-08T09:47:21.026013</dc:date>
    <dc:format>image/svg+xml</dc:format>
    <dc:creator>
     <cc:Agent>
      <dc:title>Matplotlib v3.10.1, https://matplotlib.org/</dc:title>
     </cc:Agent>
    </dc:creator>
   </cc:Work>
  </rdf:RDF>
 </metadata>
 <defs>
  <style type="text/css">*{stroke-linejoin: round; stroke-linecap: butt}</style>
 </defs>
 <g id="figure_1">
  <g id="patch_1">
   <path d="M 0 143.89375 
L 263.68375 143.89375 
L 263.68375 0 
L 0 0 
z
" style="fill: #ffffff"/>
  </g>
  <g id="axes_1">
   <g id="patch_2">
    <path d="M 33.28375 118.08 
L 256.48375 118.08 
L 256.48375 7.2 
L 33.28375 7.2 
z
" style="fill: #ffffff"/>
   </g>
   <g id="FillBetweenPolyCollection_1">
    <path d="M 64.128551 113.04 
L 63.311676 113.04 
L 63.234851 112.787418 
L 63.152537 112.534836 
L 63.059124 112.282253 
L 62.946112 112.029671 
L 62.803402 111.777089 
L 62.62111 111.524507 
L 62.39135 111.271924 
L 62.109358 111.019342 
L 61.773575 110.76676 
L 61.384627 110.514178 
L 60.943561 110.261596 
L 60.449997 110.009013 
L 59.900918 109.756431 
L 59.290655 109.503849 
L 58.6123 109.251267 
L 57.860307 108.998685 
L 57.033597 108.746102 
L 56.138232 108.49352 
L 55.188714 108.240938 
L 54.207393 107.988356 
L 53.222117 107.735773 
L 52.262849 107.483191 
L 51.358239 107.230609 
L 50.532804 106.978027 
L 49.804787 106.725445 
L 49.184188 106.472862 
L 48.670546 106.22028 
L 48.250809 105.967698 
L 47.898625 105.715116 
L 47.57689 105.462533 
L 47.244495 105.209951 
L 46.866225 104.957369 
L 46.422624 104.704787 
L 45.915934 104.452205 
L 45.369656 104.199622 
L 44.822174 103.94704 
L 44.317522 103.694458 
L 43.897074 103.441876 
L 43.594499 103.189293 
L 43.433877 102.936711 
L 43.429205 102.684129 
L 43.583553 102.431547 
L 43.887593 102.178965 
L 44.318789 101.926382 
L 44.843138 101.6738 
L 45.420508 101.421218 
L 46.012847 101.168636 
L 46.592818 100.916054 
L 47.149708 100.663471 
L 47.690195 100.410889 
L 48.233527 100.158307 
L 48.802996 99.905725 
L 49.417159 99.653142 
L 50.084142 99.40056 
L 50.800663 99.147978 
L 51.555029 98.895396 
L 52.331612 98.642814 
L 53.114225 98.390231 
L 53.887161 98.137649 
L 54.634575 97.885067 
L 55.340079 97.632485 
L 55.98816 97.379902 
L 56.567639 97.12732 
L 57.075752 96.874738 
L 57.520642 96.622156 
L 57.920573 96.369574 
L 58.299697 96.116991 
L 58.681837 95.864409 
L 59.084546 95.611827 
L 59.515367 95.359245 
L 59.97108 95.106663 
L 60.439544 94.85408 
L 60.903071 94.601498 
L 61.342246 94.348916 
L 61.739457 94.096334 
L 62.081638 93.843751 
L 62.361949 93.591169 
L 62.580174 93.338587 
L 62.741862 93.086005 
L 62.856529 92.833423 
L 62.935512 92.58084 
L 62.990071 92.328258 
L 63.03012 92.075676 
L 63.063649 91.823094 
L 63.09662 91.570511 
L 63.133075 91.317929 
L 63.175271 91.065347 
L 63.223792 90.812765 
L 63.277711 90.560183 
L 63.334851 90.3076 
L 63.392178 90.055018 
L 63.446326 89.802436 
L 63.494204 89.549854 
L 63.533592 89.297271 
L 63.563621 89.044689 
L 63.584964 88.792107 
L 63.599641 88.539525 
L 63.610444 88.286943 
L 63.620143 88.03436 
L 63.820084 88.03436 
L 63.820084 88.03436 
L 63.829784 88.286943 
L 63.840587 88.539525 
L 63.855264 88.792107 
L 63.876606 89.044689 
L 63.906635 89.297271 
L 63.946023 89.549854 
L 63.993901 89.802436 
L 64.048049 90.055018 
L 64.105376 90.3076 
L 64.162516 90.560183 
L 64.216436 90.812765 
L 64.264956 91.065347 
L 64.307152 91.317929 
L 64.343607 91.570511 
L 64.376578 91.823094 
L 64.410107 92.075676 
L 64.450156 92.328258 
L 64.504715 92.58084 
L 64.583699 92.833423 
L 64.698366 93.086005 
L 64.860053 93.338587 
L 65.078278 93.591169 
L 65.358589 93.843751 
L 65.70077 94.096334 
L 66.097981 94.348916 
L 66.537157 94.601498 
L 67.000683 94.85408 
L 67.469147 95.106663 
L 67.92486 95.359245 
L 68.355681 95.611827 
L 68.758391 95.864409 
L 69.14053 96.116991 
L 69.519654 96.369574 
L 69.919585 96.622156 
L 70.364476 96.874738 
L 70.872589 97.12732 
L 71.452067 97.379902 
L 72.100148 97.632485 
L 72.805653 97.885067 
L 73.553067 98.137649 
L 74.326002 98.390231 
L 75.108616 98.642814 
L 75.885198 98.895396 
L 76.639564 99.147978 
L 77.356086 99.40056 
L 78.023068 99.653142 
L 78.637231 99.905725 
L 79.2067 100.158307 
L 79.750032 100.410889 
L 80.29052 100.663471 
L 80.847409 100.916054 
L 81.42738 101.168636 
L 82.01972 101.421218 
L 82.59709 101.6738 
L 83.121438 101.926382 
L 83.552634 102.178965 
L 83.856675 102.431547 
L 84.011023 102.684129 
L 84.00635 102.936711 
L 83.845728 103.189293 
L 83.543153 103.441876 
L 83.122706 103.694458 
L 82.618053 103.94704 
L 82.070572 104.199622 
L 81.524293 104.452205 
L 81.017603 104.704787 
L 80.574002 104.957369 
L 80.195732 105.209951 
L 79.863337 105.462533 
L 79.541602 105.715116 
L 79.189418 105.967698 
L 78.769681 106.22028 
L 78.25604 106.472862 
L 77.63544 106.725445 
L 76.907423 106.978027 
L 76.081988 107.230609 
L 75.177378 107.483191 
L 74.218111 107.735773 
L 73.232834 107.988356 
L 72.251513 108.240938 
L 71.301995 108.49352 
L 70.40663 108.746102 
L 69.57992 108.998685 
L 68.827927 109.251267 
L 68.149573 109.503849 
L 67.539309 109.756431 
L 66.99023 110.009013 
L 66.496667 110.261596 
L 66.0556 110.514178 
L 65.666652 110.76676 
L 65.33087 111.019342 
L 65.048878 111.271924 
L 64.819117 111.524507 
L 64.636825 111.777089 
L 64.494115 112.029671 
L 64.381104 112.282253 
L 64.287691 112.534836 
L 64.205376 112.787418 
L 64.128551 113.04 
z
" clip-path="url(#p66588307df)" style="fill: #4682b4; fill-opacity: 0.5"/>
   </g>
   <g id="FillBetweenPolyCollection_2">
    <path d="M 144.967627 99.640219 
L 144.799873 99.640219 
L 144.796777 99.56737 
L 144.794296 99.494521 
L 144.788064 99.421672 
L 144.773504 99.348823 
L 144.74757 99.275974 
L 144.710182 99.203125 
L 144.664667 99.130277 
L 144.61687 99.057428 
L 144.573081 98.984579 
L 144.537482 98.91173 
L 144.510081 98.838881 
L 144.485977 98.766032 
L 144.456214 98.693183 
L 144.409823 98.620334 
L 144.336285 98.547485 
L 144.227738 98.474636 
L 144.080627 98.401787 
L 143.896749 98.328939 
L 143.683517 98.25609 
L 143.452911 98.183241 
L 143.218531 98.110392 
L 142.990763 98.037543 
L 142.771217 97.964694 
L 142.548724 97.891845 
L 142.299325 97.818996 
L 141.991512 97.746147 
L 141.595601 97.673298 
L 141.09368 97.600449 
L 140.485481 97.527601 
L 139.787022 97.454752 
L 139.022578 97.381903 
L 138.214451 97.309054 
L 137.376501 97.236205 
L 136.514873 97.163356 
L 135.634432 97.090507 
L 134.745537 97.017658 
L 133.865924 96.944809 
L 133.016336 96.87196 
L 132.213016 96.799111 
L 131.461733 96.726263 
L 130.756171 96.653414 
L 130.080502 96.580565 
L 129.414323 96.507716 
L 128.738476 96.434867 
L 128.041145 96.362018 
L 127.323666 96.289169 
L 126.604759 96.21632 
L 125.921421 96.143471 
L 125.325179 96.070622 
L 124.873609 95.997773 
L 124.618442 95.924925 
L 124.592841 95.852076 
L 124.801378 95.779227 
L 125.21619 95.706378 
L 125.781466 95.633529 
L 126.425983 95.56068 
L 127.080826 95.487831 
L 127.697629 95.414982 
L 128.26188 95.342133 
L 128.796376 95.269284 
L 129.35217 95.196435 
L 129.98872 95.123587 
L 130.750112 95.050738 
L 131.646995 94.977889 
L 132.651812 94.90504 
L 133.708468 94.832191 
L 134.750849 94.759342 
L 135.721666 94.686493 
L 136.585077 94.613644 
L 137.330796 94.540795 
L 137.970925 94.467946 
L 138.532165 94.395097 
L 139.04622 94.322249 
L 139.541011 94.2494 
L 140.034758 94.176551 
L 140.533877 94.103702 
L 141.034236 94.030853 
L 141.524464 93.958004 
L 141.989925 93.885155 
L 142.416455 93.812306 
L 142.793243 93.739457 
L 143.114519 93.666608 
L 143.37989 93.593759 
L 143.593594 93.520911 
L 143.763153 93.448062 
L 143.89794 93.375213 
L 144.007872 93.302364 
L 144.102211 93.229515 
L 144.188428 93.156666 
L 144.27121 93.083817 
L 144.351948 93.010968 
L 144.429017 92.938119 
L 144.498978 92.86527 
L 144.558402 92.792421 
L 144.605637 92.719573 
L 144.641733 92.646724 
L 144.670113 92.573875 
L 144.69516 92.501026 
L 144.720478 92.428177 
L 145.047022 92.428177 
L 145.047022 92.428177 
L 145.07234 92.501026 
L 145.097387 92.573875 
L 145.125767 92.646724 
L 145.161863 92.719573 
L 145.209098 92.792421 
L 145.268522 92.86527 
L 145.338483 92.938119 
L 145.415552 93.010968 
L 145.49629 93.083817 
L 145.579072 93.156666 
L 145.665289 93.229515 
L 145.759628 93.302364 
L 145.86956 93.375213 
L 146.004347 93.448062 
L 146.173906 93.520911 
L 146.38761 93.593759 
L 146.652981 93.666608 
L 146.974257 93.739457 
L 147.351045 93.812306 
L 147.777575 93.885155 
L 148.243036 93.958004 
L 148.733264 94.030853 
L 149.233623 94.103702 
L 149.732742 94.176551 
L 150.226489 94.2494 
L 150.72128 94.322249 
L 151.235335 94.395097 
L 151.796575 94.467946 
L 152.436704 94.540795 
L 153.182423 94.613644 
L 154.045834 94.686493 
L 155.016651 94.759342 
L 156.059032 94.832191 
L 157.115688 94.90504 
L 158.120505 94.977889 
L 159.017388 95.050738 
L 159.77878 95.123587 
L 160.41533 95.196435 
L 160.971124 95.269284 
L 161.50562 95.342133 
L 162.069871 95.414982 
L 162.686674 95.487831 
L 163.341517 95.56068 
L 163.986034 95.633529 
L 164.55131 95.706378 
L 164.966122 95.779227 
L 165.174659 95.852076 
L 165.149058 95.924925 
L 164.893891 95.997773 
L 164.442321 96.070622 
L 163.846079 96.143471 
L 163.162741 96.21632 
L 162.443834 96.289169 
L 161.726355 96.362018 
L 161.029024 96.434867 
L 160.353177 96.507716 
L 159.686998 96.580565 
L 159.011329 96.653414 
L 158.305767 96.726263 
L 157.554484 96.799111 
L 156.751164 96.87196 
L 155.901576 96.944809 
L 155.021963 97.017658 
L 154.133068 97.090507 
L 153.252627 97.163356 
L 152.390999 97.236205 
L 151.553049 97.309054 
L 150.744922 97.381903 
L 149.980478 97.454752 
L 149.282019 97.527601 
L 148.67382 97.600449 
L 148.171899 97.673298 
L 147.775988 97.746147 
L 147.468175 97.818996 
L 147.218776 97.891845 
L 146.996283 97.964694 
L 146.776737 98.037543 
L 146.548969 98.110392 
L 146.314589 98.183241 
L 146.083983 98.25609 
L 145.870751 98.328939 
L 145.686873 98.401787 
L 145.539762 98.474636 
L 145.431215 98.547485 
L 145.357677 98.620334 
L 145.311286 98.693183 
L 145.281523 98.766032 
L 145.257419 98.838881 
L 145.230018 98.91173 
L 145.194419 98.984579 
L 145.15063 99.057428 
L 145.102833 99.130277 
L 145.057318 99.203125 
L 145.01993 99.275974 
L 144.993996 99.348823 
L 144.979436 99.421672 
L 144.973204 99.494521 
L 144.970723 99.56737 
L 144.967627 99.640219 
z
" clip-path="url(#p66588307df)" style="fill: #4682b4; fill-opacity: 0.5"/>
   </g>
   <g id="FillBetweenPolyCollection_3">
    <path d="M 226.207266 46.041166 
L 225.887507 46.041166 
L 225.865843 45.85103 
L 225.849423 45.660894 
L 225.839322 45.470758 
L 225.835415 45.280622 
L 225.835866 45.090486 
L 225.836691 44.90035 
L 225.83156 44.710214 
L 225.812063 44.520078 
L 225.768536 44.329942 
L 225.691432 44.139806 
L 225.573045 43.94967 
L 225.409234 43.759534 
L 225.200648 43.569398 
L 224.952863 43.379262 
L 224.675047 43.189126 
L 224.37725 42.99899 
L 224.067074 42.808854 
L 223.747 42.618718 
L 223.413536 42.428582 
L 223.058621 42.238446 
L 222.67262 42.04831 
L 222.247496 41.858174 
L 221.778748 41.668038 
L 221.265513 41.477902 
L 220.709276 41.287766 
L 220.112287 41.09763 
L 219.476605 40.907494 
L 218.803983 40.717358 
L 218.096108 40.527222 
L 217.354593 40.337085 
L 216.580627 40.146949 
L 215.774814 39.956813 
L 214.937942 39.766677 
L 214.072948 39.576541 
L 213.187521 39.386405 
L 212.296107 39.196269 
L 211.420022 39.006133 
L 210.584925 38.815997 
L 209.815928 38.625861 
L 209.131688 38.435725 
L 208.539602 38.245589 
L 208.034206 38.055453 
L 207.599827 37.865317 
L 207.216794 37.675181 
L 206.868838 37.485045 
L 206.548841 37.294909 
L 206.261014 37.104773 
L 206.019403 36.914637 
L 205.844049 36.724501 
L 205.756477 36.534365 
L 205.775599 36.344229 
L 205.914369 36.154093 
L 206.177257 35.963957 
L 206.558795 35.773821 
L 207.043695 35.583685 
L 207.608976 35.393549 
L 208.228077 35.203413 
L 208.876211 35.013277 
L 209.535515 34.823141 
L 210.198195 34.633005 
L 210.866288 34.442869 
L 211.547845 34.252733 
L 212.250891 34.062597 
L 212.977579 33.872461 
L 213.721001 33.682325 
L 214.466007 33.492189 
L 215.193701 33.302053 
L 215.887777 33.111917 
L 216.540064 32.921781 
L 217.153005 32.731645 
L 217.738066 32.541509 
L 218.310856 32.351373 
L 218.885147 32.161237 
L 219.468287 31.971101 
L 220.059559 31.780965 
L 220.651432 31.590829 
L 221.232394 31.400693 
L 221.789805 31.210557 
L 222.311944 31.020421 
L 222.789322 30.830285 
L 223.215747 30.640149 
L 223.589317 30.450013 
L 223.912971 30.259877 
L 224.193964 30.069741 
L 224.442026 29.879605 
L 224.666656 29.689469 
L 224.874543 29.499333 
L 225.06813 29.309197 
L 225.245827 29.119061 
L 225.403622 28.928925 
L 225.53732 28.738789 
L 225.644494 28.548653 
L 225.725522 28.358516 
L 225.783544 28.16838 
L 225.823627 27.978244 
L 225.851571 27.788108 
L 225.872799 27.597972 
L 225.891554 27.407836 
L 225.910508 27.2177 
L 226.184265 27.2177 
L 226.184265 27.2177 
L 226.203219 27.407836 
L 226.221974 27.597972 
L 226.243201 27.788108 
L 226.271146 27.978244 
L 226.311229 28.16838 
L 226.369251 28.358516 
L 226.450278 28.548653 
L 226.557453 28.738789 
L 226.691151 28.928925 
L 226.848945 29.119061 
L 227.026642 29.309197 
L 227.22023 29.499333 
L 227.428116 29.689469 
L 227.652747 29.879605 
L 227.900809 30.069741 
L 228.181802 30.259877 
L 228.505456 30.450013 
L 228.879026 30.640149 
L 229.305451 30.830285 
L 229.782829 31.020421 
L 230.304968 31.210557 
L 230.862379 31.400693 
L 231.443341 31.590829 
L 232.035214 31.780965 
L 232.626485 31.971101 
L 233.209625 32.161237 
L 233.783917 32.351373 
L 234.356707 32.541509 
L 234.941768 32.731645 
L 235.554709 32.921781 
L 236.206996 33.111917 
L 236.901072 33.302053 
L 237.628766 33.492189 
L 238.373772 33.682325 
L 239.117194 33.872461 
L 239.843882 34.062597 
L 240.546928 34.252733 
L 241.228485 34.442869 
L 241.896578 34.633005 
L 242.559258 34.823141 
L 243.218562 35.013277 
L 243.866696 35.203413 
L 244.485797 35.393549 
L 245.051078 35.583685 
L 245.535978 35.773821 
L 245.917516 35.963957 
L 246.180403 36.154093 
L 246.319173 36.344229 
L 246.338295 36.534365 
L 246.250724 36.724501 
L 246.075369 36.914637 
L 245.833758 37.104773 
L 245.545931 37.294909 
L 245.225934 37.485045 
L 244.877979 37.675181 
L 244.494945 37.865317 
L 244.060567 38.055453 
L 243.555171 38.245589 
L 242.963085 38.435725 
L 242.278845 38.625861 
L 241.509848 38.815997 
L 240.674751 39.006133 
L 239.798665 39.196269 
L 238.907251 39.386405 
L 238.021825 39.576541 
L 237.156831 39.766677 
L 236.319959 39.956813 
L 235.514146 40.146949 
L 234.74018 40.337085 
L 233.998665 40.527222 
L 233.29079 40.717358 
L 232.618168 40.907494 
L 231.982486 41.09763 
L 231.385497 41.287766 
L 230.82926 41.477902 
L 230.316025 41.668038 
L 229.847277 41.858174 
L 229.422152 42.04831 
L 229.036151 42.238446 
L 228.681237 42.428582 
L 228.347773 42.618718 
L 228.027699 42.808854 
L 227.717523 42.99899 
L 227.419726 43.189126 
L 227.14191 43.379262 
L 226.894124 43.569398 
L 226.685538 43.759534 
L 226.521728 43.94967 
L 226.403341 44.139806 
L 226.326237 44.329942 
L 226.28271 44.520078 
L 226.263213 44.710214 
L 226.258082 44.90035 
L 226.258907 45.090486 
L 226.259358 45.280622 
L 226.25545 45.470758 
L 226.24535 45.660894 
L 226.22893 45.85103 
L 226.207266 46.041166 
z
" clip-path="url(#p66588307df)" style="fill: #4682b4; fill-opacity: 0.5"/>
   </g>
   <g id="matplotlib.axis_1">
    <g id="xtick_1">
     <g id="line2d_1">
      <defs>
       <path id="mc1dfadd6a7" d="M 0 0 
L 0 3.5 
" style="stroke: #000000; stroke-width: 0.8"/>
      </defs>
      <g>
       <use xlink:href="#mc1dfadd6a7" x="63.720114" y="118.08" style="stroke: #000000; stroke-width: 0.8"/>
      </g>
     </g>
     <g id="text_1">
      <!-- Deg. Assort. -->
      <g transform="translate(27.032926 134.198125) scale(0.12 -0.12)">
       <defs>
        <path id="DejaVuSans-44" d="M 1259 4147 
L 1259 519 
L 2022 519 
Q 2988 519 3436 956 
Q 3884 1394 3884 2338 
Q 3884 3275 3436 3711 
Q 2988 4147 2022 4147 
L 1259 4147 
z
M 628 4666 
L 1925 4666 
Q 3281 4666 3915 4102 
Q 4550 3538 4550 2338 
Q 4550 1131 3912 565 
Q 3275 0 1925 0 
L 628 0 
L 628 4666 
z
" transform="scale(0.015625)"/>
        <path id="DejaVuSans-65" d="M 3597 1894 
L 3597 1613 
L 953 1613 
Q 991 1019 1311 708 
Q 1631 397 2203 397 
Q 2534 397 2845 478 
Q 3156 559 3463 722 
L 3463 178 
Q 3153 47 2828 -22 
Q 2503 -91 2169 -91 
Q 1331 -91 842 396 
Q 353 884 353 1716 
Q 353 2575 817 3079 
Q 1281 3584 2069 3584 
Q 2775 3584 3186 3129 
Q 3597 2675 3597 1894 
z
M 3022 2063 
Q 3016 2534 2758 2815 
Q 2500 3097 2075 3097 
Q 1594 3097 1305 2825 
Q 1016 2553 972 2059 
L 3022 2063 
z
" transform="scale(0.015625)"/>
        <path id="DejaVuSans-67" d="M 2906 1791 
Q 2906 2416 2648 2759 
Q 2391 3103 1925 3103 
Q 1463 3103 1205 2759 
Q 947 2416 947 1791 
Q 947 1169 1205 825 
Q 1463 481 1925 481 
Q 2391 481 2648 825 
Q 2906 1169 2906 1791 
z
M 3481 434 
Q 3481 -459 3084 -895 
Q 2688 -1331 1869 -1331 
Q 1566 -1331 1297 -1286 
Q 1028 -1241 775 -1147 
L 775 -588 
Q 1028 -725 1275 -790 
Q 1522 -856 1778 -856 
Q 2344 -856 2625 -561 
Q 2906 -266 2906 331 
L 2906 616 
Q 2728 306 2450 153 
Q 2172 0 1784 0 
Q 1141 0 747 490 
Q 353 981 353 1791 
Q 353 2603 747 3093 
Q 1141 3584 1784 3584 
Q 2172 3584 2450 3431 
Q 2728 3278 2906 2969 
L 2906 3500 
L 3481 3500 
L 3481 434 
z
" transform="scale(0.015625)"/>
        <path id="DejaVuSans-2e" d="M 684 794 
L 1344 794 
L 1344 0 
L 684 0 
L 684 794 
z
" transform="scale(0.015625)"/>
        <path id="DejaVuSans-20" transform="scale(0.015625)"/>
        <path id="DejaVuSans-41" d="M 2188 4044 
L 1331 1722 
L 3047 1722 
L 2188 4044 
z
M 1831 4666 
L 2547 4666 
L 4325 0 
L 3669 0 
L 3244 1197 
L 1141 1197 
L 716 0 
L 50 0 
L 1831 4666 
z
" transform="scale(0.015625)"/>
        <path id="DejaVuSans-73" d="M 2834 3397 
L 2834 2853 
Q 2591 2978 2328 3040 
Q 2066 3103 1784 3103 
Q 1356 3103 1142 2972 
Q 928 2841 928 2578 
Q 928 2378 1081 2264 
Q 1234 2150 1697 2047 
L 1894 2003 
Q 2506 1872 2764 1633 
Q 3022 1394 3022 966 
Q 3022 478 2636 193 
Q 2250 -91 1575 -91 
Q 1294 -91 989 -36 
Q 684 19 347 128 
L 347 722 
Q 666 556 975 473 
Q 1284 391 1588 391 
Q 1994 391 2212 530 
Q 2431 669 2431 922 
Q 2431 1156 2273 1281 
Q 2116 1406 1581 1522 
L 1381 1569 
Q 847 1681 609 1914 
Q 372 2147 372 2553 
Q 372 3047 722 3315 
Q 1072 3584 1716 3584 
Q 2034 3584 2315 3537 
Q 2597 3491 2834 3397 
z
" transform="scale(0.015625)"/>
        <path id="DejaVuSans-6f" d="M 1959 3097 
Q 1497 3097 1228 2736 
Q 959 2375 959 1747 
Q 959 1119 1226 758 
Q 1494 397 1959 397 
Q 2419 397 2687 759 
Q 2956 1122 2956 1747 
Q 2956 2369 2687 2733 
Q 2419 3097 1959 3097 
z
M 1959 3584 
Q 2709 3584 3137 3096 
Q 3566 2609 3566 1747 
Q 3566 888 3137 398 
Q 2709 -91 1959 -91 
Q 1206 -91 779 398 
Q 353 888 353 1747 
Q 353 2609 779 3096 
Q 1206 3584 1959 3584 
z
" transform="scale(0.015625)"/>
        <path id="DejaVuSans-72" d="M 2631 2963 
Q 2534 3019 2420 3045 
Q 2306 3072 2169 3072 
Q 1681 3072 1420 2755 
Q 1159 2438 1159 1844 
L 1159 0 
L 581 0 
L 581 3500 
L 1159 3500 
L 1159 2956 
Q 1341 3275 1631 3429 
Q 1922 3584 2338 3584 
Q 2397 3584 2469 3576 
Q 2541 3569 2628 3553 
L 2631 2963 
z
" transform="scale(0.015625)"/>
        <path id="DejaVuSans-74" d="M 1172 4494 
L 1172 3500 
L 2356 3500 
L 2356 3053 
L 1172 3053 
L 1172 1153 
Q 1172 725 1289 603 
Q 1406 481 1766 481 
L 2356 481 
L 2356 0 
L 1766 0 
Q 1100 0 847 248 
Q 594 497 594 1153 
L 594 3053 
L 172 3053 
L 172 3500 
L 594 3500 
L 594 4494 
L 1172 4494 
z
" transform="scale(0.015625)"/>
       </defs>
       <use xlink:href="#DejaVuSans-44"/>
       <use xlink:href="#DejaVuSans-65" transform="translate(77.001953 0)"/>
       <use xlink:href="#DejaVuSans-67" transform="translate(138.525391 0)"/>
       <use xlink:href="#DejaVuSans-2e" transform="translate(202.001953 0)"/>
       <use xlink:href="#DejaVuSans-20" transform="translate(233.789062 0)"/>
       <use xlink:href="#DejaVuSans-41" transform="translate(265.576172 0)"/>
       <use xlink:href="#DejaVuSans-73" transform="translate(333.984375 0)"/>
       <use xlink:href="#DejaVuSans-73" transform="translate(386.083984 0)"/>
       <use xlink:href="#DejaVuSans-6f" transform="translate(438.183594 0)"/>
       <use xlink:href="#DejaVuSans-72" transform="translate(499.365234 0)"/>
       <use xlink:href="#DejaVuSans-74" transform="translate(540.478516 0)"/>
       <use xlink:href="#DejaVuSans-2e" transform="translate(579.6875 0)"/>
      </g>
     </g>
    </g>
    <g id="xtick_2">
     <g id="line2d_2">
      <g>
       <use xlink:href="#mc1dfadd6a7" x="144.88375" y="118.08" style="stroke: #000000; stroke-width: 0.8"/>
      </g>
     </g>
     <g id="text_2">
      <!-- ES -->
      <g transform="translate(137.283437 134.198125) scale(0.12 -0.12)">
       <defs>
        <path id="DejaVuSans-45" d="M 628 4666 
L 3578 4666 
L 3578 4134 
L 1259 4134 
L 1259 2753 
L 3481 2753 
L 3481 2222 
L 1259 2222 
L 1259 531 
L 3634 531 
L 3634 0 
L 628 0 
L 628 4666 
z
" transform="scale(0.015625)"/>
        <path id="DejaVuSans-53" d="M 3425 4513 
L 3425 3897 
Q 3066 4069 2747 4153 
Q 2428 4238 2131 4238 
Q 1616 4238 1336 4038 
Q 1056 3838 1056 3469 
Q 1056 3159 1242 3001 
Q 1428 2844 1947 2747 
L 2328 2669 
Q 3034 2534 3370 2195 
Q 3706 1856 3706 1288 
Q 3706 609 3251 259 
Q 2797 -91 1919 -91 
Q 1588 -91 1214 -16 
Q 841 59 441 206 
L 441 856 
Q 825 641 1194 531 
Q 1563 422 1919 422 
Q 2459 422 2753 634 
Q 3047 847 3047 1241 
Q 3047 1584 2836 1778 
Q 2625 1972 2144 2069 
L 1759 2144 
Q 1053 2284 737 2584 
Q 422 2884 422 3419 
Q 422 4038 858 4394 
Q 1294 4750 2059 4750 
Q 2388 4750 2728 4690 
Q 3069 4631 3425 4513 
z
" transform="scale(0.015625)"/>
       </defs>
       <use xlink:href="#DejaVuSans-45"/>
       <use xlink:href="#DejaVuSans-53" transform="translate(63.183594 0)"/>
      </g>
     </g>
    </g>
    <g id="xtick_3">
     <g id="line2d_3">
      <g>
       <use xlink:href="#mc1dfadd6a7" x="226.047386" y="118.08" style="stroke: #000000; stroke-width: 0.8"/>
      </g>
     </g>
     <g id="text_3">
      <!-- Mean CC -->
      <g transform="translate(199.413011 134.198125) scale(0.12 -0.12)">
       <defs>
        <path id="DejaVuSans-4d" d="M 628 4666 
L 1569 4666 
L 2759 1491 
L 3956 4666 
L 4897 4666 
L 4897 0 
L 4281 0 
L 4281 4097 
L 3078 897 
L 2444 897 
L 1241 4097 
L 1241 0 
L 628 0 
L 628 4666 
z
" transform="scale(0.015625)"/>
        <path id="DejaVuSans-61" d="M 2194 1759 
Q 1497 1759 1228 1600 
Q 959 1441 959 1056 
Q 959 750 1161 570 
Q 1363 391 1709 391 
Q 2188 391 2477 730 
Q 2766 1069 2766 1631 
L 2766 1759 
L 2194 1759 
z
M 3341 1997 
L 3341 0 
L 2766 0 
L 2766 531 
Q 2569 213 2275 61 
Q 1981 -91 1556 -91 
Q 1019 -91 701 211 
Q 384 513 384 1019 
Q 384 1609 779 1909 
Q 1175 2209 1959 2209 
L 2766 2209 
L 2766 2266 
Q 2766 2663 2505 2880 
Q 2244 3097 1772 3097 
Q 1472 3097 1187 3025 
Q 903 2953 641 2809 
L 641 3341 
Q 956 3463 1253 3523 
Q 1550 3584 1831 3584 
Q 2591 3584 2966 3190 
Q 3341 2797 3341 1997 
z
" transform="scale(0.015625)"/>
        <path id="DejaVuSans-6e" d="M 3513 2113 
L 3513 0 
L 2938 0 
L 2938 2094 
Q 2938 2591 2744 2837 
Q 2550 3084 2163 3084 
Q 1697 3084 1428 2787 
Q 1159 2491 1159 1978 
L 1159 0 
L 581 0 
L 581 3500 
L 1159 3500 
L 1159 2956 
Q 1366 3272 1645 3428 
Q 1925 3584 2291 3584 
Q 2894 3584 3203 3211 
Q 3513 2838 3513 2113 
z
" transform="scale(0.015625)"/>
        <path id="DejaVuSans-43" d="M 4122 4306 
L 4122 3641 
Q 3803 3938 3442 4084 
Q 3081 4231 2675 4231 
Q 1875 4231 1450 3742 
Q 1025 3253 1025 2328 
Q 1025 1406 1450 917 
Q 1875 428 2675 428 
Q 3081 428 3442 575 
Q 3803 722 4122 1019 
L 4122 359 
Q 3791 134 3420 21 
Q 3050 -91 2638 -91 
Q 1578 -91 968 557 
Q 359 1206 359 2328 
Q 359 3453 968 4101 
Q 1578 4750 2638 4750 
Q 3056 4750 3426 4639 
Q 3797 4528 4122 4306 
z
" transform="scale(0.015625)"/>
       </defs>
       <use xlink:href="#DejaVuSans-4d"/>
       <use xlink:href="#DejaVuSans-65" transform="translate(86.279297 0)"/>
       <use xlink:href="#DejaVuSans-61" transform="translate(147.802734 0)"/>
       <use xlink:href="#DejaVuSans-6e" transform="translate(209.082031 0)"/>
       <use xlink:href="#DejaVuSans-20" transform="translate(272.460938 0)"/>
       <use xlink:href="#DejaVuSans-43" transform="translate(304.248047 0)"/>
       <use xlink:href="#DejaVuSans-43" transform="translate(374.072266 0)"/>
      </g>
     </g>
    </g>
   </g>
   <g id="matplotlib.axis_2">
    <g id="ytick_1">
     <g id="line2d_4">
      <defs>
       <path id="m21aa7fdbc4" d="M 0 0 
L -3.5 0 
" style="stroke: #000000; stroke-width: 0.8"/>
      </defs>
      <g>
       <use xlink:href="#m21aa7fdbc4" x="33.28375" y="100.666843" style="stroke: #000000; stroke-width: 0.8"/>
      </g>
     </g>
     <g id="text_4">
      <!-- 0.0 -->
      <g transform="translate(7.2 105.225905) scale(0.12 -0.12)">
       <defs>
        <path id="DejaVuSans-30" d="M 2034 4250 
Q 1547 4250 1301 3770 
Q 1056 3291 1056 2328 
Q 1056 1369 1301 889 
Q 1547 409 2034 409 
Q 2525 409 2770 889 
Q 3016 1369 3016 2328 
Q 3016 3291 2770 3770 
Q 2525 4250 2034 4250 
z
M 2034 4750 
Q 2819 4750 3233 4129 
Q 3647 3509 3647 2328 
Q 3647 1150 3233 529 
Q 2819 -91 2034 -91 
Q 1250 -91 836 529 
Q 422 1150 422 2328 
Q 422 3509 836 4129 
Q 1250 4750 2034 4750 
z
" transform="scale(0.015625)"/>
       </defs>
       <use xlink:href="#DejaVuSans-30"/>
       <use xlink:href="#DejaVuSans-2e" transform="translate(63.623047 0)"/>
       <use xlink:href="#DejaVuSans-30" transform="translate(95.410156 0)"/>
      </g>
     </g>
    </g>
    <g id="ytick_2">
     <g id="line2d_5">
      <g>
       <use xlink:href="#m21aa7fdbc4" x="33.28375" y="66.631524" style="stroke: #000000; stroke-width: 0.8"/>
      </g>
     </g>
     <g id="text_5">
      <!-- 0.2 -->
      <g transform="translate(7.2 71.190586) scale(0.12 -0.12)">
       <defs>
        <path id="DejaVuSans-32" d="M 1228 531 
L 3431 531 
L 3431 0 
L 469 0 
L 469 531 
Q 828 903 1448 1529 
Q 2069 2156 2228 2338 
Q 2531 2678 2651 2914 
Q 2772 3150 2772 3378 
Q 2772 3750 2511 3984 
Q 2250 4219 1831 4219 
Q 1534 4219 1204 4116 
Q 875 4013 500 3803 
L 500 4441 
Q 881 4594 1212 4672 
Q 1544 4750 1819 4750 
Q 2544 4750 2975 4387 
Q 3406 4025 3406 3419 
Q 3406 3131 3298 2873 
Q 3191 2616 2906 2266 
Q 2828 2175 2409 1742 
Q 1991 1309 1228 531 
z
" transform="scale(0.015625)"/>
       </defs>
       <use xlink:href="#DejaVuSans-30"/>
       <use xlink:href="#DejaVuSans-2e" transform="translate(63.623047 0)"/>
       <use xlink:href="#DejaVuSans-32" transform="translate(95.410156 0)"/>
      </g>
     </g>
    </g>
    <g id="ytick_3">
     <g id="line2d_6">
      <g>
       <use xlink:href="#m21aa7fdbc4" x="33.28375" y="32.596205" style="stroke: #000000; stroke-width: 0.8"/>
      </g>
     </g>
     <g id="text_6">
      <!-- 0.4 -->
      <g transform="translate(7.2 37.155268) scale(0.12 -0.12)">
       <defs>
        <path id="DejaVuSans-34" d="M 2419 4116 
L 825 1625 
L 2419 1625 
L 2419 4116 
z
M 2253 4666 
L 3047 4666 
L 3047 1625 
L 3713 1625 
L 3713 1100 
L 3047 1100 
L 3047 0 
L 2419 0 
L 2419 1100 
L 313 1100 
L 313 1709 
L 2253 4666 
z
" transform="scale(0.015625)"/>
       </defs>
       <use xlink:href="#DejaVuSans-30"/>
       <use xlink:href="#DejaVuSans-2e" transform="translate(63.623047 0)"/>
       <use xlink:href="#DejaVuSans-34" transform="translate(95.410156 0)"/>
      </g>
     </g>
    </g>
   </g>
   <g id="line2d_7">
    <defs>
     <path id="m05c0de76fe" d="M -1.5 1.5 
L 1.5 1.5 
L 1.5 -1.5 
L -1.5 -1.5 
z
" style="stroke: #000000; stroke-linejoin: miter"/>
    </defs>
    <g clip-path="url(#p66588307df)">
     <use xlink:href="#m05c0de76fe" x="63.720114" y="108.521183" style="stroke: #000000; stroke-linejoin: miter"/>
    </g>
   </g>
   <g id="line2d_8">
    <g clip-path="url(#p66588307df)">
     <use xlink:href="#m05c0de76fe" x="144.88375" y="53.054593" style="stroke: #000000; stroke-linejoin: miter"/>
    </g>
   </g>
   <g id="line2d_9">
    <g clip-path="url(#p66588307df)">
     <use xlink:href="#m05c0de76fe" x="226.047386" y="12.24" style="stroke: #000000; stroke-linejoin: miter"/>
    </g>
   </g>
   <g id="patch_3">
    <path d="M 33.28375 118.08 
L 33.28375 7.2 
" style="fill: none; stroke: #000000; stroke-width: 0.8; stroke-linejoin: miter; stroke-linecap: square"/>
   </g>
   <g id="patch_4">
    <path d="M 33.28375 118.08 
L 256.48375 118.08 
" style="fill: none; stroke: #000000; stroke-width: 0.8; stroke-linejoin: miter; stroke-linecap: square"/>
   </g>
   <g id="legend_1">
    <g id="line2d_10">
     <g>
      <use xlink:href="#m05c0de76fe" x="52.28375" y="20.298437" style="stroke: #000000; stroke-linejoin: miter"/>
     </g>
    </g>
    <g id="text_7">
     <!-- Dataset -->
     <g transform="translate(70.28375 23.798437) scale(0.1 -0.1)">
      <use xlink:href="#DejaVuSans-44"/>
      <use xlink:href="#DejaVuSans-61" transform="translate(77.001953 0)"/>
      <use xlink:href="#DejaVuSans-74" transform="translate(138.28125 0)"/>
      <use xlink:href="#DejaVuSans-61" transform="translate(177.490234 0)"/>
      <use xlink:href="#DejaVuSans-73" transform="translate(238.769531 0)"/>
      <use xlink:href="#DejaVuSans-65" transform="translate(290.869141 0)"/>
      <use xlink:href="#DejaVuSans-74" transform="translate(352.392578 0)"/>
     </g>
    </g>
    <g id="patch_5">
     <path d="M 42.28375 38.476562 
L 62.28375 38.476562 
L 62.28375 31.476562 
L 42.28375 31.476562 
z
" style="fill: #4682b4; opacity: 0.5"/>
    </g>
    <g id="text_8">
     <!-- Chung-Lu -->
     <g transform="translate(70.28375 38.476562) scale(0.1 -0.1)">
      <defs>
       <path id="DejaVuSans-68" d="M 3513 2113 
L 3513 0 
L 2938 0 
L 2938 2094 
Q 2938 2591 2744 2837 
Q 2550 3084 2163 3084 
Q 1697 3084 1428 2787 
Q 1159 2491 1159 1978 
L 1159 0 
L 581 0 
L 581 4863 
L 1159 4863 
L 1159 2956 
Q 1366 3272 1645 3428 
Q 1925 3584 2291 3584 
Q 2894 3584 3203 3211 
Q 3513 2838 3513 2113 
z
" transform="scale(0.015625)"/>
       <path id="DejaVuSans-75" d="M 544 1381 
L 544 3500 
L 1119 3500 
L 1119 1403 
Q 1119 906 1312 657 
Q 1506 409 1894 409 
Q 2359 409 2629 706 
Q 2900 1003 2900 1516 
L 2900 3500 
L 3475 3500 
L 3475 0 
L 2900 0 
L 2900 538 
Q 2691 219 2414 64 
Q 2138 -91 1772 -91 
Q 1169 -91 856 284 
Q 544 659 544 1381 
z
M 1991 3584 
L 1991 3584 
z
" transform="scale(0.015625)"/>
       <path id="DejaVuSans-2d" d="M 313 2009 
L 1997 2009 
L 1997 1497 
L 313 1497 
L 313 2009 
z
" transform="scale(0.015625)"/>
       <path id="DejaVuSans-4c" d="M 628 4666 
L 1259 4666 
L 1259 531 
L 3531 531 
L 3531 0 
L 628 0 
L 628 4666 
z
" transform="scale(0.015625)"/>
      </defs>
      <use xlink:href="#DejaVuSans-43"/>
      <use xlink:href="#DejaVuSans-68" transform="translate(69.824219 0)"/>
      <use xlink:href="#DejaVuSans-75" transform="translate(133.203125 0)"/>
      <use xlink:href="#DejaVuSans-6e" transform="translate(196.582031 0)"/>
      <use xlink:href="#DejaVuSans-67" transform="translate(259.960938 0)"/>
      <use xlink:href="#DejaVuSans-2d" transform="translate(323.4375 0)"/>
      <use xlink:href="#DejaVuSans-4c" transform="translate(359.521484 0)"/>
      <use xlink:href="#DejaVuSans-75" transform="translate(413.484375 0)"/>
     </g>
    </g>
   </g>
  </g>
 </g>
 <defs>
  <clipPath id="p66588307df">
   <rect x="33.28375" y="7.2" width="223.2" height="110.88"/>
  </clipPath>
 </defs>
</svg>
